<?xml version="1.0" encoding="UTF-8"?><svg xmlns="http://www.w3.org/2000/svg" xmlns:xlink="http://www.w3.org/1999/xlink" viewBox="0 0 740 300"><defs><style>.cls-1,.cls-2{fill:none;}.cls-3{fill:#d79f2e;}.cls-4,.cls-5,.cls-6,.cls-7{fill-rule:evenodd;}.cls-4,.cls-8,.cls-9{fill:#fff;}.cls-5,.cls-10{fill:#f6ce61;}.cls-11,.cls-12,.cls-6{fill:#110835;}.cls-13,.cls-12,.cls-6{mix-blend-mode:multiply;opacity:.06;}.cls-14{fill:#f1d4ae;}.cls-15{fill:#3e78dc;}.cls-16{fill:#dc5930;}.cls-17{fill:#377845;}.cls-18{fill:#ffb542;}.cls-19{isolation:isolate;}.cls-20{fill:#b9c3db;}.cls-21{clip-path:url(#clippath-1);}.cls-22{clip-path:url(#clippath-2);}.cls-7,.cls-23{fill:#eab73f;}.cls-24{fill:#3069bd;}.cls-25{opacity:.43;}.cls-26{fill:#ec714b;}.cls-2{stroke:#110835;stroke-linecap:round;stroke-linejoin:round;stroke-width:.5px;}.cls-27{fill:#dde8fd;}.cls-9{filter:url(#outer-glow-6);}.cls-28{fill:#002761;}.cls-29{fill:#63b980;}.cls-30{clip-path:url(#clippath);}.cls-31{fill:#fff29e;}.cls-32{fill:#ececec;}</style><clipPath id="clippath"><rect class="cls-1" x="-773.44" y="0" width="740" height="300"/></clipPath><clipPath id="clippath-1"><rect class="cls-1" x="-773.44" y="15" width="875.5" height="300.6"/></clipPath><clipPath id="clippath-2"><rect class="cls-1" y="0" width="740" height="300"/></clipPath><filter id="outer-glow-6" x="309.01" y="209.43" width="121.92" height="66.48" filterUnits="userSpaceOnUse"><feOffset dx="0" dy="0"/><feGaussianBlur result="blur" stdDeviation="5"/><feFlood flood-color="#000" flood-opacity=".15"/><feComposite in2="blur" operator="in"/><feComposite in="SourceGraphic"/></filter></defs><g class="cls-19"><g id="Layer_1"><g class="cls-30"><polygon class="cls-27" points="124.63 344.36 -773.44 344.36 -793.45 -44.36 124.63 -44.36 124.63 344.36"/><g class="cls-21"><path class="cls-8" d="M-163.89,320.68c-16.12-1.26-28.14-1.8-40.04-3.29-7.54-.95-15.04-2.88-22.3-5.19-7.13-2.27-10.86-7.48-10.93-15.4-.02-2.24-1.78-5.03-3.59-6.59-6.28-5.39-14.07-7.62-22.02-9.3-21.15-4.48-42.25-9.17-62.22-17.78-.63-.27-1.27-.53-1.89-.81-12.98-5.93-15.41-17.89-5.29-27.95,7.37-7.33,16.33-12.34,26.48-14.82,32.63-7.96,65.29-15.57,98.84-19.13,15.77-1.68,31.39-1.17,47.08-.8,6.43.15,12.93.9,19.2,2.29,15.23,3.37,36.39,6.22,50.04,13.13,10.18,5.15,21.34,7.42,32.62,8.38,9.41.8,18.36,3.02,27.25,6.01,5.28,1.78,10.9,2.52,16.24,4.15,7.89,2.4,10.24,6.41,7.73,14.35-1.67,5.31-.05,8.46,4.06,11.54,6.37,4.77,12.45,9.93,18.65,14.94.53.43,1,.95,1.48,1.44,8.69,8.99,7.81,18.34-3.04,24.55-5.37,3.08-11.5,5.08-17.51,6.78-19.48,5.5-39.57,7.24-59.64,8.96-19.67,1.68-39.35,3.51-59.06,4.43-15.39.71-30.84.13-42.15.12Z"/><path class="cls-20" d="M22.47,164.2c.14,8.46-1.33,16.53-5.93,23.81-3.13,4.95-7.11,8.92-12.56,11.31-5.02,2.21-9.89,1.67-14.76-.47-3.37-1.47-5.29-4.14-6.67-7.39-3.32-7.82-5.25-15.9-4.53-24.44.19-2.2.6-4.44,1.29-6.54,2.04-6.19,5.15-11.81,10.16-16.1,6.12-5.25,13.18-6.67,20.94-4.4,2.97.87,4.96,3.04,6.86,5.3,3.48,4.13,4.8,9.07,5.2,14.31.12,1.53.02,3.07.02,4.61Z"/><path class="cls-8" d="M18.88,162.35c-.52,2.86-.93,5.75-1.59,8.58-.47,2.02-1.25,3.97-1.94,5.94-.23.65-.53,1.29-.86,1.9-.32.6-.84.95-1.55.74-.62-.18-.9-.93-.65-1.72.19-.59.44-1.17.68-1.75,1.49-3.61,2.55-7.35,3.07-11.21.24-1.78.16-3.63,0-5.42-.2-2.28-.65-4.53-.96-6.8-.05-.33-.09-.76.08-.99.26-.36.67-.75,1.07-.82.29-.05.73.34.98.64.2.24.26.63.3.97.29,1.99.58,3.98.82,5.97.16,1.31.25,2.63.38,3.94.06.01.12.03.18.04Z"/><path class="cls-8" d="M3.68,162.99c-.19,1.54-.37,2.92-.53,4.29-.38,3.23-.76,6.47-1.11,9.7-.07.68.05,1.38,0,2.06-.03.52-.28.93-.89.97-.64.04-1.13-.21-1.27-.83-.13-.53-.16-1.11-.12-1.66.24-3.18.5-6.36.79-9.53.13-1.38.32-2.75.53-4.12.09-.61.25-1.22.42-1.82.17-.6.57-.98,1.22-.9.66.07.93.55.96,1.17.01.28,0,.56,0,.67Z"/><path class="cls-8" d="M9.51,156.82c.06-3.35-.34-6.66-1.08-9.92-.19-.82-.08-1.38.72-1.67.66-.24,1.33.09,1.59.95.35,1.12.7,2.28.78,3.44.24,3.67.35,7.36.51,11.04.01.27.03.61-.1.82-.21.33-.54.79-.84.8-.4.02-.96-.22-1.21-.54-.27-.34-.34-.9-.35-1.36-.05-1.18-.02-2.37-.02-3.55Z"/><path class="cls-8" d="M10.53,171.62c-.7,2.81-1.39,5.62-2.11,8.43-.1.39-.35.76-.6,1.07-.37.46-.85.75-1.45.4-.55-.32-.73-.8-.54-1.42.28-.93.6-1.84.81-2.79.42-1.89.77-3.78,1.15-5.68.01-.07,0-.14.01-.21.17-1.22.78-1.94,1.56-1.86.73.08,1.05.73,1.18,2.05Z"/><path class="cls-8" d="M10.12,187.35c-.42.8-.75,1.4-1.05,2.01-.92,1.91-2.51,3.11-4.3,4.09-.76.42-1.39.25-1.78-.41-.41-.68-.1-1.19.43-1.62.22-.17.44-.34.69-.47,1.41-.73,2.4-1.84,3.05-3.29.17-.37.38-.79.7-1.02.35-.26.92-.56,1.24-.43.42.17.68.73,1.02,1.13Z"/><path class="cls-8" d="M5.05,146.55c-.28,1.7-.54,3.4-.85,5.09-.14.75-.3,1.56-1.35,1.51-.72-.04-1.06-.55-.97-1.76.12-1.58.38-3.14.59-4.71.09-.68.15-1.37.29-2.05.12-.62.59-1.03,1.19-.87.38.1.83.54.93.91.16.58.04,1.23.04,1.86.04,0,.09.01.13.02Z"/><path class="cls-8" d="M1.2,185.88c-.58,1.61-.93,3.2-2.2,4.28-.24.2-.81.22-1.13.09-.61-.24-.73-.88-.53-1.41.45-1.16,1-2.27,1.53-3.4.06-.12.17-.26.28-.29.37-.12.84-.37,1.13-.25.38.17.63.64.93.97Z"/><g class="cls-25"><path class="cls-8" d="M4.81,139.47c.53-1.1,1.17-1.44,2.06-.91.48.29.5.82.14,1.19-.8.81-1.43.09-2.2-.29Z"/><path class="cls-8" d="M1,130.64c.53.5.38.91-.16,1.22-.2.12-.51,0-.58-.21-.2-.62.08-.95.74-1.01Z"/><path class="cls-8" d="M6.05,135.24c-.1,0-.24.04-.28,0-.05-.07-.02-.2-.03-.3.1,0,.24-.03.28.02.05.06.02.19.03.29Z"/></g></g></g><g class="cls-22"><rect class="cls-31" x="-5.79" y="-7.16" width="898.07" height="314.32"/><path class="cls-10" d="M27.25,247.66c2.45-3.24,3.82-7.43,3.38-11.48.24.39.53.75.84,1.09,1.84,2.01,4.76,3.01,7.43,2.42,3.12-.69,5.66-3.5,6.02-6.68.37-3.18-1.47-6.49-4.35-7.87,3.02,1.94,7.8,1.7,9.41-1.51,1.31-2.61-.06-5.8-1.93-8.05-.11-.13-.23-.25-.34-.38-3.17-3.65-7.6-6.09-12.26-7.42-4.82-1.38-8.04-1.07-13.05-.94-2.92.08-5.66,1.58-7.82,3.55-5.54,5.06-8.26,10.74-10.36,17.1-.74,2.23-1.28,4.59-.99,6.92.3,2.33,1.57,4.64,3.69,5.67,3.05,1.47,7.22-.61,7.87-3.94.28,3.01-.09,6.1.62,9.03.71,2.94,2.97,5.85,5.99,5.94,2.35.07,4.42-1.58,5.84-3.45Z"/><path class="cls-17" d="M19.99,206.36c3.81-1.13,7.89-1.34,11.8-.61.6.11,1.23.26,1.69.66.46.4.68,1.14.33,1.64-.28.39-.8.51-1.27.59-2.12.34-4.29.35-6.41.03,3.73.12,7.42,1.46,10.36,3.76.61.47,1.24,1.15,1.07,1.9-.23,1.04-1.65,1.16-2.7.98-3.51-.62-6.88-2.01-9.79-4.06,2.17,2.9,3.25,5.94,3.92,9.5.18.94.26,2.02-.37,2.74-.68.77-1.94.75-2.81.23-.88-.52-1.45-1.43-1.95-2.32-1.68-3.02-2.85-6.32-3.45-9.73.32,3.36-.19,6.8-1.47,9.92-.33.81-.73,1.62-1.38,2.2-.65.58-1.62.88-2.42.53-1.3-.56-1.48-2.31-1.35-3.72.27-3.01,1.03-5.98,2.22-8.75-1.22,2.63-3.01,5-5.2,6.9-.69.59-1.73,1.15-2.42.56.22-4.08,3.38-7.31,6.33-10.12,1.57-1.5,3.21-2.21,5.29-2.82Z"/><path class="cls-17" d="M-55.82,110.61c7.64,2.93,15.54,5.97,22.8,10.1,12.34,7.02,23.61,17.79,32.59,31.12,7.71,11.44,13.94,24.83,19.07,40.95,1.34,4.21,2.77,9.13,2.83,14.1l-1.6.02c-.05-4.76-1.45-9.53-2.75-13.63-5.08-15.97-11.25-29.23-18.87-40.54-8.85-13.13-19.93-23.72-32.06-30.63-7.16-4.08-15-7.09-22.59-10l.57-1.49Z"/><path class="cls-17" d="M20.15,204.56c-.29.09-.58.21-.83.4-.35.26-.6.62-.84.98-.26.38-.53.86-.36,1.28.1.24.32.4.55.53,1.63.93,3.9.5,5.07-.96,1.67-2.08-2.33-2.61-3.6-2.23Z"/><path class="cls-26" d="M199.63,54.63c.27-4.06-.89-8.31-3.49-11.44.42.2.86.34,1.3.45,2.64.67,5.63-.1,7.54-2.06,2.23-2.29,2.8-6.03,1.36-8.89-1.44-2.85-4.79-4.62-7.96-4.18,3.58-.04,7.45-2.87,7.03-6.43-.34-2.9-3.24-4.81-6.04-5.67-.16-.05-.33-.08-.49-.13-4.66-1.3-9.7-.91-14.32.54-4.79,1.5-7.3,3.52-11.42,6.39-2.4,1.67-3.86,4.43-4.58,7.26-1.85,7.27-1,13.51.74,19.98.61,2.27,1.45,4.54,2.98,6.32,1.53,1.78,3.86,3.02,6.19,2.71,3.36-.44,5.7-4.48,4.41-7.62,1.89,2.36,3.27,5.14,5.48,7.21,2.21,2.07,5.69,3.26,8.27,1.67,2-1.24,2.82-3.75,2.98-6.09Z"/><path class="cls-17" d="M170.86,24.12c2.56-3.04,5.86-5.45,9.52-6.99.56-.24,1.17-.46,1.77-.37.61.09,1.2.58,1.17,1.19-.02.48-.38.87-.74,1.19-1.58,1.45-3.39,2.65-5.34,3.55,3.19-1.95,7-2.86,10.72-2.56.77.06,1.67.28,1.94,1,.38.99-.74,1.88-1.72,2.3-3.27,1.41-6.85,2.1-10.41,1.99,3.4,1.23,5.98,3.18,8.5,5.78.66.69,1.33,1.54,1.19,2.49-.14,1.01-1.2,1.69-2.22,1.74-1.02.05-2-.39-2.9-.87-3.06-1.6-5.86-3.72-8.23-6.23,2.11,2.63,3.58,5.78,4.23,9.1.17.86.28,1.75.05,2.6-.23.84-.87,1.62-1.73,1.78-1.39.25-2.51-1.12-3.18-2.37-1.43-2.66-2.43-5.56-2.95-8.53.42,2.87.23,5.83-.55,8.62-.25.87-.82,1.91-1.72,1.8-2.06-3.53-1.19-7.96-.27-11.94.49-2.11,1.47-3.61,2.87-5.27Z"/><path class="cls-17" d="M54.9-14.21c7.99-1.75,16.26-3.55,24.6-4.09,14.17-.91,29.5,1.89,44.33,8.09,12.72,5.32,25.3,13.09,38.43,23.73,3.43,2.78,7.33,6.1,10.11,10.23l-1.32.89c-2.66-3.94-6.45-7.17-9.79-9.88-13.02-10.55-25.46-18.24-38.04-23.5-14.61-6.11-29.69-8.87-43.61-7.97-8.22.53-16.43,2.32-24.37,4.06l-.34-1.56Z"/><path class="cls-17" d="M170.01,22.53c-.2.24-.37.5-.48.79-.15.41-.16.85-.16,1.28,0,.46.02,1.01.41,1.27.22.15.49.16.75.14,1.87-.12,3.53-1.73,3.71-3.59.25-2.66-3.38-.91-4.23.12Z"/><path class="cls-17" d="M-7.72-25l.36-1.37C21.54-20.36,51.41-14.14,78.59-2.09c21.31,9.45,49.87,26.81,64.88,55.81l-1.35.64C127.29,25.7,99.02,8.54,77.91-.82,50.89-12.81,21.1-19-7.72-25Z"/><path class="cls-17" d="M143.9,64.5c-1.55-2.28-1.88-5.1-2.17-7.81-.22-2.01-.43-4.01-.65-6.02,3.2,1.62,6.46,3.28,8.92,5.78,1.9,1.94,4.93,6.83,3.05,9.61-2.29,3.38-7.53.85-9.16-1.56Z"/><path class="cls-17" d="M134.28,50.32c-.85,3.36-3.11,6.59-6.47,8.06-2.75,1.21-6.47.9-8.11-1.41-1.65-2.33-.6-5.57,1.03-7.99,2.27-3.39,5.57-6.18,9.4-7.95,2.88-1.33,3.96-1,4.37,1.81.36,2.47.4,5.02-.22,7.48Z"/><path class="cls-17" d="M137.63,33.66c3.19-.15,6.41-.97,9.09-2.65,1.42-.89,2.73-2.08,3.27-3.59.54-1.51.14-3.37-1.27-4.22-.66-.4-1.47-.54-2.26-.6-5.5-.42-10.68,2.65-15.05,5.93-.84.64-1.72,1.32-2.33,2.17-.88,1.21-1.13,1.78.38,2.17,2.59.67,5.46.91,8.16.78Z"/><path class="cls-17" d="M67.55,2.27c-2.11,2.29-3.71,5.04-4.26,7.99-.29,1.56-.27,3.24.53,4.62.81,1.37,2.56,2.32,4.2,1.91.77-.19,1.44-.65,2.04-1.16,4.17-3.5,5.38-9.08,5.84-14.25.09-1,.16-2.05-.08-3.03-.34-1.4-.61-1.95-1.97-1.17-2.33,1.34-4.53,3.15-6.31,5.09Z"/><path class="cls-17" d="M109.42,11.27c3.19-.15,6.41-.97,9.09-2.65,1.42-.89,2.73-2.08,3.27-3.59.54-1.51.14-3.37-1.27-4.22-.66-.4-1.47-.54-2.26-.6-5.5-.42-10.68,2.65-15.05,5.93-.84.64-1.72,1.32-2.33,2.17-.88,1.21-1.13,1.78.38,2.17,2.59.67,5.46.91,8.16.78Z"/><path class="cls-17" d="M100.75,17.36c.17,2.98-.36,6.04-1.86,8.71-.8,1.41-1.93,2.75-3.48,3.41-1.55.66-3.58.48-4.63-.73-.49-.57-.73-1.3-.87-2.03-1.03-5.06,1.69-10.19,4.73-14.58.59-.85,1.23-1.73,2.07-2.39,1.2-.94,1.78-1.23,2.35.13.99,2.33,1.55,4.97,1.7,7.49Z"/><path class="cls-17" d="M25.22-11.26c.17,2.98-.36,6.04-1.86,8.71-.8,1.41-1.93,2.75-3.48,3.41-1.55.66-3.58.48-4.63-.73-.49-.57-.73-1.3-.87-2.03-1.03-5.06,1.69-10.19,4.73-14.58.59-.85,1.23-1.73,2.07-2.39,1.2-.94,1.78-1.23,2.35.13.99,2.33,1.55,4.97,1.7,7.49Z"/><path class="cls-17" d="M105.16,23.91c-2.04,2.35-3.56,5.13-4.03,8.09-.25,1.57-.18,3.25.67,4.6.85,1.35,2.62,2.25,4.26,1.8.77-.21,1.43-.69,2.01-1.21,4.07-3.61,5.11-9.21,5.43-14.38.06-1,.1-2.06-.17-3.03-.38-1.39-.67-1.93-2.01-1.12-2.29,1.4-4.44,3.26-6.16,5.25Z"/><path class="cls-17" d="M37.85-9.02c-1.75,2.02-3.06,4.42-3.47,6.97-.21,1.35-.15,2.79.58,3.96.73,1.16,2.26,1.94,3.66,1.55.66-.18,1.23-.59,1.73-1.04,3.5-3.1,4.4-7.93,4.67-12.38.05-.86.09-1.77-.14-2.6-.33-1.2-.57-1.66-1.73-.96-1.97,1.2-3.82,2.81-5.3,4.51Z"/><path class="cls-17" d="M121.61,42.77c-1.11,1.21-2.4,2.33-3.97,2.91-1.58.58-3.48.53-4.77-.45-.79-.6-1.29-1.5-1.49-2.44-.42-1.97.4-4.06,1.73-5.68,1.34-1.62,3.15-2.83,4.98-3.94,2.21-1.34,8.13-4.26,7.91.04-.19,3.53-1.93,6.87-4.39,9.55Z"/><path class="cls-17" d="M59.31,3.95c-1.11,1.21-2.4,2.33-3.97,2.91-1.58.58-3.48.53-4.77-.45-.79-.6-1.29-1.5-1.49-2.44-.42-1.97.4-4.06,1.73-5.68,1.34-1.62,3.15-2.83,4.98-3.94,2.21-1.34,8.13-4.26,7.91.04-.19,3.53-1.93,6.87-4.39,9.55Z"/><path class="cls-17" d="M125.13,12.69c1.66-.27,3.4-.35,4.98.15,1.57.51,2.96,1.71,3.23,3.25.17.95-.09,1.95-.6,2.8-1.06,1.78-3.12,2.91-5.23,3.35-2.12.44-4.3.28-6.43.03-2.58-.3-9-1.64-5.85-4.84,2.59-2.63,6.21-4.16,9.9-4.75Z"/><path class="cls-17" d="M88.45,15.28c-.59,1.49-1.38,2.95-2.64,4.02-1.27,1.06-3.09,1.65-4.67,1.17-.98-.29-1.78-.96-2.33-1.77-1.14-1.68-1.17-3.89-.52-5.83.65-1.94,1.9-3.66,3.2-5.3,1.58-1.98,6.06-6.64,7.48-2.6,1.16,3.33.79,7-.52,10.3Z"/><path class="cls-17" d="M152.09,45.67c1.5-.31,3.1-.97,3.71-2.29.7-1.52-.28-3.32-1.77-4.15-1.49-.83-3.33-.9-5.08-.86-3.96.1-7.91.72-11.73,1.78-.57.16-1.16.34-1.57.74-1.88,1.83,5.2,3.78,6.47,4.15,3.19.94,6.62,1.33,9.96.63Z"/><path class="cls-17" d="M100.64.9c2.84-1.1,5.57-2.59,7.73-4.66,2.15-2.07,3.7-4.78,3.92-7.63.15-1.98-.47-4.16-2.24-5.21-1.89-1.12-4.43-.61-6.54.23-5.73,2.27-10.35,6.81-12.78,12.13-.76,1.67-2.94,6.75-1.07,7.55,1.13.48,4.26-.5,5.49-.77,1.87-.41,3.71-.96,5.49-1.65Z"/><path class="cls-1" d="M16.71,53.93c.1.08.19.15.29.23.02,0,.04.02.06.02-.12-.08-.23-.17-.34-.26Z"/><path class="cls-17" d="M58.43,94.52c-.22-3.71-1.71-7.23-3.55-10.46-4.62-8.12-11.52-14.81-19.27-20.05-1.54-1.05-3.13-2.02-4.74-2.97,1.38.42,2.78.76,4.21,1,2.29.38,4.75.51,6.84-.5,2.92-1.42,4.47-4.84,4.44-8.06-.03-3.23-1.18-7.9-2.66-10.77C37.2,30.19,14.64,8.57-5.46-4.65c-1.08-.71-2.16-1.4-3.22-2.06-1.97-1.22-4.51-.7-5.38,1.45-4.92,12.25-18.48,49.31-16.87,66.81.45,4.85,2.13,10.06,5.68,13.39,3.56,3.33,10.51,3.24,12.49-1.22-4.11,17.93-2.54,36.15,2.51,53.67,1.72,5.98,4.01,13.01,10.45,15.4,1.4.52,2.75.73,3.86.67,2.56-.14,4.69-3.04,5.61-5.73-1.36,14.28,5.06,29.12,16.6,37.71,5.31,3.95,13,6.66,18.1.43,2.3-2.81,4.13-10.25,3.95-13.86-.55-11.06-3.38-18.3-8.5-26.5.92.67,1.96,1.25,3.13,1.72,2.7,1.1,5.95,1.36,8.44-.18,2.35-1.45,3.58-4.23,3.96-6.95.65-4.63-.77-9.35-3.14-13.36-2.19-3.71-5.17-6.9-8.25-9.93.43.11.86.21,1.29.28.5.08,1.01.12,1.51.14,1.61.35,3.22.22,4.46-.66,1.23-.43,2.39-1.07,3.38-1.93,2.82-2.46,4.02-6.39,3.8-10.1Z"/><path class="cls-11" d="M-3.96,26.43C-6.01,15.07-7.96,3.75-9.91-7.5c0-.12-.11-.23-.21-.28-.06-.02-.14-.04-.21-.03-.19.04-.33.22-.3.43,1.6,9.24,3.2,18.54,4.85,27.86.05.3.11.57.16.87.31,1.71.6,3.43.91,5.14l.08.38v.02c.82,4.55,1.65,9.12,2.52,13.68.05.3.1.61.16.9.76,4.13,1.56,8.26,2.37,12.38.06.36.13.73.21,1.09.63,3.23,1.28,6.45,1.93,9.67l.18.81c.63,3.05,1.26,6.11,1.92,9.15.06.35.14.69.21,1.02.61,2.8,1.22,5.62,1.86,8.41l.2.89c.46,2.08.93,4.15,1.41,6.2.08.36.18.72.26,1.09,1.07,4.53,2.17,9.07,3.31,13.59.07.31.16.63.23.94,1.9,7.46,3.91,14.9,6.07,22.28.13.44.25.88.39,1.32v.02c3.71,12.6,7.82,25.07,12.44,37.38.06.18.26.28.47.22.18-.08.28-.28.2-.48-4.47-11.89-8.44-23.94-12.04-36.1-.14-.47-.26-.93-.4-1.39-2.18-7.4-4.21-14.85-6.12-22.32-.06-.17-.09-.32-.13-.49-.09-.3-.17-.61-.22-.92-.04-.12-.07-.25-.1-.37-1.25-4.87-2.44-9.77-3.57-14.67-.1-.36-.18-.73-.26-1.09-.37-1.59-.73-3.17-1.08-4.76-.09-.3-.15-.6-.22-.9-.72-3.24-1.43-6.47-2.14-9.71-.07-.33-.15-.67-.21-1-.5-2.34-1-4.69-1.47-7.04-.09-.3-.13-.6-.2-.91v-.02c-.07-.27-.11-.55-.17-.83-.74-3.63-1.48-7.27-2.19-10.91-.08-.36-.14-.72-.22-1.08-.72-3.69-1.43-7.39-2.11-11.07-.07-.29-.12-.6-.19-.91-.85-4.55-1.67-9.1-2.49-13.63-.05-.3-.11-.57-.14-.87Z"/><path class="cls-11" d="M9.13,91.17c-.1-.36-.18-.73-.26-1.09-.18.33-.36.66-.52,1C2.49,102.77.12,116.21,1.64,129.12c.02.19.2.33.42.32.19-.03.34-.2.31-.41-1.49-12.51.73-25.5,6.24-36.86.16-.33.34-.67.52-1Z"/><path class="cls-11" d="M39.08,126.7c-7.25-8.41-16.33-15.48-26.28-20.49-.29-.15-.58-.3-.86-.44h-.02c.07.3.16.62.23.93.3.13.59.28.88.43,9.65,4.96,18.44,11.85,25.51,20.03.12.15.35.17.5.05.15-.12.17-.36.05-.52Z"/><path class="cls-11" d="M42.22,111.97c-9.63-11.19-21.57-20.66-34.66-27.56-.27-.15-.54-.31-.82-.43l.2.89c.29.15.55.29.84.44,12.78,6.87,24.45,16.18,33.89,27.12.12.15.35.17.5.03.15-.12.18-.35.05-.5Z"/><path class="cls-11" d="M38.09,85.7c-10.19-8.79-22.1-15.89-34.71-20.79-.26-.1-.54-.22-.81-.3l.18.81c.26.12.54.22.8.32v.02c12.37,4.87,24.03,11.88,34.06,20.49.14.13.37.11.5-.04.13-.14.12-.37-.02-.5Z"/><path class="cls-11" d="M24.56,57.89c-7.79-6.7-16.56-12.42-25.89-16.96-.25-.12-.51-.25-.77-.37.05.3.1.61.16.9.26.12.53.24.79.38,9.08,4.44,17.62,10.06,25.23,16.58.14.13.37.11.5-.04.13-.14.12-.37-.02-.5Z"/><path class="cls-11" d="M41.29,157.99c-5.84-10.31-13.34-19.86-22.02-28.03-.35-.34-.69-.65-1.05-.97.13.44.25.88.39,1.32v.02c.37.33.74.68,1.07,1.02,8.27,7.94,15.39,17.12,20.98,27.01.11.17.32.23.5.14.18-.09.24-.32.14-.5Z"/><path class="cls-11" d="M.97,52.91c-.18.31-.37.62-.53.93-5.24,8.97-9.35,18.65-12.1,28.57-.07.2.05.4.25.45.19.05.4-.06.45-.25,2.66-9.59,6.58-18.95,11.61-27.68.17-.31.35-.62.55-.94-.08-.36-.14-.72-.22-1.08Z"/><path class="cls-11" d="M5.22,73.7c-.19.28-.36.57-.55.86-6.4,10.05-11.36,21.12-14.52,32.52-.04.21.07.4.26.44.2.06.39-.05.44-.24,3.08-11.1,7.87-21.88,14.03-31.71.19-.29.36-.59.55-.88-.07-.33-.15-.67-.21-1Z"/><path class="cls-11" d="M-3.39,26.7c-.28-.13-.56-.26-.84-.39-.18-.08-.4,0-.48.18-.09.18.03.38.17.48,14.58,6.79,28.07,15.63,40.03,26.36.15.13.38.12.51-.03.13-.15.12-.38-.03-.51C24.21,42.22,10.96,33.44-3.39,26.7Z"/><path class="cls-1" d="M19.6,7.28c.14.01.29.03.43.04.02,0,.05,0,.07-.01-.17,0-.33-.02-.5-.03Z"/><path class="cls-29" d="M86.46,20c-2.61-3.48-6.33-5.95-10.2-7.92-9.74-4.95-20.78-7.03-31.73-7.15-2.18-.03-4.36.04-6.54.16,1.62-.48,3.21-1.05,4.75-1.74,2.48-1.1,4.96-2.56,6.35-4.9,1.94-3.27,1.25-7.6-.86-10.73-2.11-3.13-6.24-6.95-9.54-8.79-14.4-8.02-50.34-14.59-78.48-14.54-1.51,0-3.01.02-4.47.06-2.71.08-4.85,2.23-4.31,4.89,3.09,15.12,13.74,60.03,26.59,76.07,3.56,4.44,8.56,8.44,14.17,9.4,5.62.96,12.34-3.6,11.4-9.24,7.54,20.14,20.81,36.91,37.04,50.76,5.53,4.72,12.3,10.11,20.12,8.29,1.7-.4,3.15-1.06,4.2-1.84,2.41-1.79,2.62-5.99,1.78-9.21,7.88,14.81,23.71,25.15,40.5,26.1,7.72.43,16.97-1.88,17.94-11.25.44-4.22-2.58-12.67-5.07-16.07-7.66-10.44-15.09-15.68-25.37-20.39,1.33.05,2.72-.04,4.17-.33,3.34-.67,6.68-2.51,8.12-5.61,1.36-2.93.77-6.43-.61-9.33-2.34-4.93-6.77-8.63-11.67-11.02-4.53-2.21-9.49-3.4-14.45-4.37.49-.17.97-.35,1.44-.56.54-.24,1.06-.53,1.56-.84,1.79-.7,3.28-1.86,3.93-3.52.92-1.22,1.64-2.58,2.05-4.06,1.17-4.21-.19-8.83-2.8-12.31Z"/><path class="cls-11" d="M-18.3-6.24c-9.32-9.76-18.52-19.55-27.67-29.27-.09-.11-.25-.15-.38-.14-.07.02-.16.05-.22.11-.16.16-.18.43-.02.61,7.51,7.99,15.07,16.02,22.68,24.06.24.26.47.49.71.74,1.41,1.47,2.8,2.96,4.21,4.43l.33.31h.01C-14.91-1.46-11.16,2.47-7.37,6.36c.24.26.49.53.74.77C-3.23,10.67.21,14.18,3.66,17.68c.3.31.59.63.9.93,2.69,2.74,5.4,5.47,8.11,8.2l.7.67c2.58,2.57,5.17,5.15,7.77,7.69.28.3.58.59.86.86,2.4,2.34,4.81,4.69,7.23,7l.77.74c1.79,1.73,3.58,3.45,5.37,5.15.31.3.64.58.96.9,3.96,3.73,7.97,7.45,11.99,11.13.27.26.56.51.83.77,6.67,6.05,13.42,12.02,20.28,17.83.41.34.81.7,1.23,1.04h.01c11.74,9.92,23.79,19.44,36.22,28.48.18.14.44.11.6-.09.13-.19.09-.45-.11-.6-12.02-8.72-23.66-17.93-35.01-27.47-.44-.37-.86-.74-1.28-1.09-6.89-5.81-13.67-11.78-20.35-17.84-.16-.13-.3-.26-.44-.4-.28-.24-.56-.48-.81-.76-.12-.08-.24-.2-.34-.3-4.36-3.94-8.68-7.96-12.94-12.01-.32-.28-.65-.6-.96-.9-1.39-1.31-2.75-2.62-4.13-3.95-.28-.24-.53-.48-.8-.74-2.8-2.7-5.56-5.39-8.34-8.1-.28-.27-.58-.56-.84-.84-2-1.95-4-3.94-5.96-5.92-.28-.24-.52-.5-.78-.76h-.01c-.24-.24-.46-.49-.7-.71-3.06-3.07-6.13-6.14-9.16-9.24-.31-.3-.61-.61-.92-.91C.5,13.29-2.58,10.15-5.62,6.99c-.25-.24-.5-.51-.77-.77-3.76-3.89-7.49-7.8-11.21-11.7-.24-.26-.47-.49-.7-.76Z"/><path class="cls-11" d="M36.19,48.51c-.32-.28-.65-.6-.96-.9.04.44.07.87.14,1.31,1.82,15.18,8.16,29.83,17.98,41.44.15.17.41.19.61.04.17-.15.2-.41.03-.6-9.52-11.25-15.72-25.36-17.66-39.99-.05-.42-.1-.87-.14-1.31Z"/><path class="cls-11" d="M88.31,63.88c-12.49-3.54-25.92-4.59-38.85-3.06-.38.04-.76.08-1.12.13h-.03c.27.26.56.51.83.77.38-.07.76-.11,1.13-.14,12.61-1.37,25.63-.32,37.8,3.11.22.07.45-.05.52-.27.07-.22-.07-.47-.29-.53Z"/><path class="cls-11" d="M81.89,47.48c-16.6-4.71-34.36-6.26-51.58-4.56-.36.02-.73.05-1.08.11l.77.74c.38-.04.73-.08,1.1-.11,16.89-1.53,34.29.04,50.55,4.63.22.07.45-.05.5-.29.07-.22-.05-.45-.27-.52Z"/><path class="cls-11" d="M60.93,24.51c-15.61-2-31.8-1.27-47.27,2.07-.32.07-.67.13-.99.23l.7.67c.33-.05.67-.13.99-.2h.01c15.2-3.2,31.11-3.87,46.44-1.94.22.04.43-.13.46-.36.04-.22-.12-.44-.34-.47Z"/><path class="cls-11" d="M29.8,6.08c-11.92-1.52-24.16-1.46-36.19.14-.32.04-.65.09-.99.14.24.26.49.53.74.77.33-.05.67-.1,1.02-.14,11.72-1.51,23.68-1.54,35.3-.07.22.04.43-.13.46-.36.04-.22-.12-.44-.34-.47Z"/><path class="cls-11" d="M110.63,92.98c-12.35-6.3-25.81-10.78-39.55-13.16-.55-.1-1.09-.19-1.65-.27.41.34.81.7,1.23,1.04h.01c.57.1,1.15.21,1.69.33,13.19,2.43,26.05,6.79,37.87,12.84.22.1.47.02.58-.19.11-.21.02-.47-.18-.58Z"/><path class="cls-11" d="M3.58,16.43c.02.42.04.85.08,1.25.66,12.14,2.89,24.22,6.6,35.67.06.23.31.36.53.28.22-.08.36-.31.28-.53-3.59-11.08-5.79-22.74-6.51-34.49-.04-.41-.06-.83-.06-1.27-.31-.3-.61-.61-.92-.91Z"/><path class="cls-11" d="M21.12,33.97c0,.39.01.79.02,1.2.23,13.93,2.53,27.93,6.79,41.09.09.23.33.34.54.26.23-.06.34-.3.27-.52-4.14-12.82-6.42-26.42-6.74-39.98,0-.41-.03-.8-.03-1.21-.28-.27-.58-.56-.84-.84Z"/><path class="cls-10" d="M685.15,99.15c3.64.37,7.23,2.04,9.61,4.81-.11-.4-.17-.81-.2-1.22-.19-2.44.94-4.98,2.96-6.37,2.37-1.63,5.77-1.57,8.08.13,2.31,1.71,3.37,4.94,2.51,7.68.57-3.17,3.66-6.17,6.75-5.26,2.52.74,3.77,3.59,4.12,6.2.02.15.02.3.04.46.46,4.32-.65,8.73-2.63,12.6-2.05,4.01-4.22,5.94-7.38,9.15-1.84,1.87-4.5,2.75-7.12,2.97-6.72.55-12.12-1.15-17.58-3.66-1.92-.88-3.8-1.97-5.15-3.59-1.35-1.62-2.09-3.88-1.47-5.89.9-2.91,4.83-4.37,7.41-2.76-1.81-2.03-4.06-3.67-5.56-5.94-1.5-2.27-2.03-5.53-.23-7.57,1.39-1.59,3.75-1.94,5.85-1.72Z"/><path class="cls-17" d="M707.85,129.22c3.08-1.82,5.71-4.37,7.63-7.38.29-.46.58-.97.6-1.51.02-.55-.34-1.15-.88-1.22-.43-.06-.83.21-1.17.48-1.52,1.19-2.86,2.61-3.95,4.2,2.21-2.53,3.59-5.77,3.88-9.11.06-.69,0-1.52-.59-1.87-.82-.49-1.78.38-2.3,1.18-1.74,2.68-2.89,5.75-3.33,8.92-.58-3.2-1.91-5.78-3.84-8.4-.51-.69-1.17-1.41-2.03-1.43-.92-.03-1.68.81-1.88,1.71-.19.9.05,1.83.33,2.7.96,2.95,2.41,5.75,4.28,8.23-2.01-2.27-4.59-4.04-7.42-5.11-.73-.28-1.51-.51-2.29-.43-.78.08-1.57.53-1.84,1.27-.43,1.2.61,2.39,1.62,3.17,2.15,1.66,4.56,2.99,7.12,3.9-2.48-.81-5.13-1.08-7.72-.8-.81.09-1.81.44-1.85,1.25,2.82,2.35,6.87,2.25,10.53,2.04,1.95-.12,3.42-.76,5.1-1.75Z"/><path class="cls-17" d="M724.37,237.7c2.75-6.82,5.59-13.87,7.32-21.18,2.94-12.41,2.76-26.41-.5-40.48-2.8-12.07-7.79-24.37-15.24-37.61-1.95-3.46-4.3-7.41-7.54-10.5l-.99,1.04c3.09,2.95,5.38,6.79,7.28,10.16,7.39,13.12,12.33,25.3,15.1,37.23,3.22,13.86,3.39,27.63.5,39.83-1.71,7.2-4.53,14.2-7.26,20.97l1.33.54Z"/><path class="cls-17" d="M709.14,130.22c-.24.14-.5.25-.77.3-.38.07-.77.01-1.16-.05-.41-.06-.89-.17-1.06-.55-.1-.21-.07-.46-.01-.69.38-1.64,2.06-2.87,3.74-2.75,2.39.18.29,3.13-.74,3.73Z"/><path class="cls-17" d="M767.38,290.87l-.95.98c-21.38-18.62-43.49-37.87-60.59-60.75-13.41-17.94-29.18-45.91-28.11-77.26l1.43.1c-1.05,30.97,14.56,58.65,27.84,76.41,17.01,22.75,39.05,41.95,60.38,60.52Z"/><path class="cls-17" d="M682.43,144.6c.22,2.64-.83,5.15-1.86,7.56-.76,1.78-1.53,3.57-2.29,5.35-1.92-2.86-3.87-5.79-4.75-9.04-.68-2.52-.92-8.05,1.96-9.49,3.51-1.75,6.7,2.83,6.94,5.61Z"/><path class="cls-17" d="M683.82,161c2.29-2.42,5.7-4.06,9.21-3.71,2.87.28,5.85,2.28,6.13,5,.29,2.73-2.12,4.94-4.62,6.21-3.49,1.77-7.57,2.56-11.61,2.24-3.04-.24-3.79-1.03-2.81-3.58.86-2.24,2.03-4.4,3.7-6.17Z"/><path class="cls-17" d="M673.18,173.38c-2.75-1.37-5.82-2.2-8.86-2.05-1.61.08-3.26.46-4.43,1.47-1.17,1.01-1.7,2.76-.92,4.13.37.64.98,1.14,1.61,1.56,4.41,2.94,10.19,2.8,15.4,2.1,1.01-.14,2.06-.3,2.97-.72,1.3-.61,1.78-.96.7-2-1.86-1.78-4.15-3.33-6.47-4.49Z"/><path class="cls-17" d="M718.46,256.66c-2.68,1.26-5.09,3.11-6.63,5.53-.82,1.28-1.39,2.79-1.16,4.31.23,1.52,1.45,3.02,3.05,3.26.76.12,1.52-.04,2.23-.27,4.95-1.57,8-6.09,10.25-10.52.44-.86.87-1.77,1.01-2.73.19-1.38.15-1.96-1.34-1.77-2.55.32-5.14,1.12-7.41,2.19Z"/><path class="cls-17" d="M708.4,244.82c-2.82.99-5.41,2.6-7.21,4.85-.95,1.19-1.69,2.63-1.62,4.16.07,1.53,1.12,3.12,2.7,3.52.74.19,1.52.1,2.25-.06,5.11-1.09,8.65-5.27,11.37-9.44.53-.81,1.06-1.67,1.3-2.61.34-1.34.36-1.93-1.15-1.88-2.58.08-5.26.62-7.64,1.46Z"/><path class="cls-17" d="M717.14,232.64c2.84-.93,5.48-2.48,7.33-4.69.98-1.17,1.75-2.59,1.72-4.12-.03-1.53-1.05-3.14-2.62-3.57-.74-.2-1.52-.13-2.26,0-5.14.98-8.78,5.08-11.6,9.19-.55.79-1.1,1.64-1.36,2.58-.37,1.34-.4,1.92,1.1,1.91,2.58-.02,5.28-.51,7.68-1.3Z"/><path class="cls-17" d="M699.29,232.13c-3.04.15-6.05.95-8.49,2.58-1.3.86-2.46,2.01-2.86,3.47-.41,1.46.12,3.26,1.53,4.07.66.38,1.44.52,2.2.57,5.29.39,10.01-2.57,13.95-5.76.76-.62,1.55-1.28,2.07-2.1.75-1.17.95-1.72-.53-2.09-2.52-.64-5.29-.87-7.86-.74Z"/><path class="cls-17" d="M686.29,205.41c-2.75-1.37-5.82-2.2-8.86-2.05-1.61.08-3.26.46-4.43,1.47-1.17,1.01-1.7,2.76-.92,4.13.37.64.98,1.14,1.61,1.56,4.41,2.94,10.19,2.81,15.4,2.1,1.01-.14,2.06-.3,2.97-.72,1.3-.61,1.78-.96.7-2-1.86-1.78-4.15-3.33-6.47-4.49Z"/><path class="cls-17" d="M729.93,268.9c-2.72,1.19-5.17,2.98-6.78,5.36-.85,1.26-1.47,2.75-1.28,4.27.19,1.52,1.37,3.05,2.97,3.33.75.13,1.52,0,2.24-.22,4.99-1.45,8.17-5.89,10.55-10.25.46-.84.92-1.74,1.08-2.7.23-1.37.2-1.96-1.29-1.8-2.56.26-5.18.99-7.48,2Z"/><path class="cls-17" d="M696.42,204.38c1.25-2.57,3.14-4.9,5.66-6.42,1.33-.81,2.91-1.4,4.52-1.22,1.61.17,3.23,1.28,3.53,2.79.14.71,0,1.43-.22,2.11-1.52,4.72-6.21,7.74-10.82,9.99-.89.44-1.84.88-2.86,1.03-1.45.22-2.07.2-1.91-1.21.27-2.42,1.04-4.89,2.1-7.07Z"/><path class="cls-17" d="M695.8,196.82c2.81-1.01,5.4-2.63,7.18-4.89.95-1.2,1.68-2.64,1.6-4.17-.08-1.53-1.14-3.12-2.72-3.51-.74-.18-1.52-.09-2.25.07-5.1,1.11-8.62,5.31-11.31,9.5-.52.81-1.05,1.67-1.28,2.61-.33,1.35-.35,1.93,1.16,1.88,2.58-.09,5.25-.65,7.63-1.5Z"/><path class="cls-17" d="M736.71,256.06c2.42-.87,4.64-2.26,6.18-4.21.81-1.03,1.44-2.27,1.38-3.58-.07-1.31-.98-2.68-2.34-3.02-.64-.16-1.31-.08-1.94.06-4.39.96-7.41,4.57-9.73,8.17-.45.7-.9,1.44-1.11,2.25-.29,1.16-.3,1.66,1,1.62,2.22-.08,4.52-.56,6.57-1.29Z"/><path class="cls-17" d="M690.89,173.29c1.49-.49,3.1-.83,4.7-.57,1.59.25,3.17,1.19,3.79,2.62.38.88.37,1.86.1,2.75-.57,1.85-2.24,3.21-4.12,3.94-1.88.73-3.96.89-6.02.96-2.48.09-8.82-.26-6.61-3.75,1.81-2.87,4.85-4.85,8.17-5.94Z"/><path class="cls-17" d="M724.83,235.11c1.49-.49,3.1-.83,4.7-.57,1.59.25,3.17,1.19,3.79,2.62.38.88.37,1.86.1,2.75-.57,1.85-2.24,3.21-4.12,3.94-1.88.73-3.96.89-6.02.96-2.48.09-8.82-.26-6.61-3.75,1.81-2.87,4.85-4.85,8.17-5.94Z"/><path class="cls-17" d="M673.79,196.83c-1.52-.56-3.02-1.3-4.1-2.47-1.08-1.16-1.68-2.82-1.18-4.24.3-.87.99-1.59,1.82-2.07,1.72-1,3.98-.97,5.96-.35,1.98.62,3.74,1.79,5.41,3,2.02,1.46,6.77,5.61,2.62,6.8-3.41.98-7.16.56-10.53-.68Z"/><path class="cls-17" d="M745.22,286.69c-1.07,1.08-2.32,2.07-3.84,2.51-1.51.44-3.34.25-4.55-.79-.75-.64-1.21-1.54-1.39-2.47-.37-1.93.43-3.89,1.73-5.34,1.3-1.46,3.05-2.49,4.81-3.43,2.13-1.13,7.83-3.5,7.56.62-.22,3.39-1.94,6.48-4.32,8.89Z"/><path class="cls-17" d="M705.74,211.9c1.19-.97,2.54-1.83,4.1-2.12,1.56-.29,3.36.07,4.47,1.21.68.7,1.04,1.64,1.12,2.58.17,1.95-.85,3.81-2.3,5.13-1.45,1.32-3.31,2.18-5.17,2.93-2.25.92-8.2,2.71-7.49-1.34.59-3.33,2.63-6.23,5.28-8.39Z"/><path class="cls-17" d="M666.71,156.52c-1.4-.44-3.06-.65-4.19.17-1.3.94-1.32,2.91-.47,4.31.86,1.39,2.36,2.32,3.85,3.1,3.36,1.77,6.96,3.11,10.66,4.03.55.14,1.13.26,1.66.12,2.44-.64-2.58-5.61-3.47-6.52-2.23-2.29-4.92-4.23-8.05-5.21Z"/><path class="cls-17" d="M688.77,218.23c-2.9-.41-5.89-.45-8.67.27-2.78.72-5.35,2.26-6.88,4.55-1.06,1.58-1.56,3.7-.58,5.41,1.06,1.83,3.43,2.59,5.59,2.88,5.87.79,11.87-.84,16.41-4.16,1.42-1.04,5.63-4.27,4.45-5.82-.72-.94-3.8-1.58-4.96-1.94-1.76-.54-3.56-.94-5.37-1.2Z"/><path class="cls-29" d="M715.6,330.67v1.36c-28.33,1.35-57.61,2.75-85.78-1.94-22.1-3.67-52.83-12.96-73.76-36.33l1.11-.92c20.67,23.09,51.09,32.27,72.97,35.91,28.02,4.66,57.22,3.27,85.46,1.92Z"/><path class="cls-29" d="M553.06,283.83c1.99,1.75,2.97,4.29,3.89,6.75.68,1.81,1.37,3.63,2.05,5.44-3.37-.74-6.8-1.5-9.69-3.24-2.23-1.35-6.23-5.17-5.15-8.2,1.32-3.69,6.8-2.59,8.89-.75Z"/><path class="cls-29" d="M565.41,294.7c-.02-3.33,1.31-6.87,4.08-9.05,2.27-1.78,5.8-2.4,7.89-.63,2.1,1.77,1.89,5.03.96,7.68-1.29,3.7-3.7,7.09-6.83,9.65-2.36,1.93-3.45,1.88-4.5-.64-.93-2.21-1.58-4.58-1.59-7.02Z"/><path class="cls-29" d="M598.85,312.28c1.33-2.67,2.08-5.63,1.81-8.5-.15-1.52-.62-3.06-1.73-4.12-1.11-1.05-2.98-1.46-4.39-.65-.66.38-1.16.98-1.58,1.61-2.92,4.33-2.54,9.8-1.59,14.69.18.95.4,1.94.88,2.78.69,1.2,1.08,1.64,2.13.56,1.8-1.85,3.35-4.1,4.47-6.36Z"/><path class="cls-29" d="M579.02,298.69c.74-1.39,1.67-2.74,2.99-3.66,1.33-.92,3.11-1.33,4.54-.73.88.37,1.56,1.09,1.97,1.92.86,1.73.61,3.87-.25,5.7-.85,1.82-2.25,3.38-3.68,4.86-1.73,1.78-6.54,5.91-7.36,1.87-.67-3.33.15-6.85,1.79-9.94Z"/><path class="cls-1" d="M686.56,277.29c-.07-.09-.15-.18-.22-.28,0-.02-.02-.04-.02-.05.08.11.16.22.25.33Z"/><path class="cls-17" d="M637.86,240.87c-.83.95-1.44,2.06-1.85,3.24-.84,1.19-.97,2.74-.63,4.29.02.49.06.97.13,1.45.07.42.16.83.26,1.24-2.91-2.96-5.97-5.82-9.54-7.92-3.86-2.28-8.39-3.64-12.84-3.02-2.61.37-5.28,1.55-6.68,3.81-1.48,2.39-1.22,5.51-.17,8.11.46,1.13,1.02,2.12,1.66,3.01-7.88-4.92-14.84-7.64-25.46-8.16-3.47-.17-10.62,1.59-13.32,3.8-5.99,4.91-3.38,12.29.41,17.39,8.25,11.08,22.5,17.25,36.23,15.95-2.59.88-5.38,2.93-5.51,5.39-.06,1.07.14,2.36.64,3.71,2.3,6.19,9.05,8.38,14.79,10.04,16.84,4.85,34.34,6.36,51.57,2.41-4.29,1.9-4.37,8.58-1.18,12,3.2,3.42,8.2,5.03,12.86,5.46,16.81,1.55,52.42-11.48,64.19-16.21,2.07-.83,2.57-3.28,1.4-5.17-.63-1.02-1.3-2.05-1.98-3.09-12.71-19.31-33.48-40.99-45.5-47.23-2.75-1.43-7.24-2.53-10.34-2.56-3.1-.03-6.39,1.46-7.75,4.27-.97,2.01-.85,4.37-.48,6.57.23,1.37.56,2.72.96,4.04-.91-1.54-1.85-3.07-2.85-4.55-5.04-7.45-11.47-14.07-19.27-18.51-3.1-1.77-6.48-3.2-10.05-3.41-3.57-.21-7.35.94-9.71,3.65Z"/><path class="cls-11" d="M712.99,297.15c10.91,1.97,21.79,3.85,32.6,5.72.12,0,.22.1.27.2.02.06.04.13.02.2-.04.18-.21.32-.41.29-8.88-1.53-17.81-3.08-26.76-4.66-.28-.05-.55-.1-.83-.15-1.65-.3-3.3-.58-4.94-.88l-.36-.08h-.02c-4.37-.79-8.77-1.58-13.15-2.42-.28-.05-.58-.1-.86-.16-3.97-.73-7.94-1.5-11.9-2.28-.35-.06-.7-.12-1.05-.2-3.1-.61-6.2-1.23-9.29-1.85l-.77-.17c-2.93-.6-5.87-1.21-8.79-1.84-.33-.06-.66-.13-.98-.2-2.69-.58-5.4-1.17-8.08-1.79l-.86-.19c-1.99-.45-3.99-.89-5.96-1.35-.35-.08-.69-.17-1.05-.25-4.35-1.03-8.72-2.09-13.06-3.18-.3-.07-.61-.15-.9-.22-7.17-1.83-14.31-3.76-21.41-5.83-.42-.13-.85-.24-1.27-.37h-.02c-12.11-3.56-24.09-7.52-35.91-11.95-.18-.06-.27-.25-.21-.45.07-.17.27-.27.46-.19,11.42,4.3,23,8.1,34.68,11.57.45.14.89.25,1.33.39,7.11,2.09,14.27,4.04,21.45,5.88.16.05.31.09.47.12.29.08.59.17.89.22.11.04.24.07.36.1,4.68,1.2,9.39,2.34,14.09,3.43.34.09.7.18,1.05.25,1.53.36,3.04.7,4.58,1.04.29.08.57.15.87.21,3.11.7,6.22,1.37,9.33,2.05.31.07.64.14.96.2,2.24.48,4.51.96,6.76,1.41.29.08.58.13.87.2h.02c.26.06.53.11.79.16,3.49.71,6.98,1.42,10.48,2.1.35.08.7.14,1.04.22,3.55.69,7.1,1.38,10.64,2.03.28.06.58.11.88.18,4.37.82,8.74,1.61,13.1,2.39.28.05.55.1.84.13Z"/><path class="cls-11" d="M650.78,284.58c.34.09.7.18,1.05.25-.32.17-.63.35-.96.5-11.23,5.62-24.14,7.91-36.55,6.44-.18-.02-.32-.19-.31-.4.02-.19.19-.32.4-.29,12.02,1.43,24.5-.7,35.41-6,.31-.16.65-.33.96-.5Z"/><path class="cls-11" d="M616.65,255.81c8.08,6.96,14.88,15.69,19.68,25.25.14.28.29.55.42.83v.02c-.28-.07-.59-.15-.89-.22-.12-.29-.27-.57-.41-.84-4.77-9.27-11.39-17.72-19.25-24.51-.15-.12-.17-.33-.05-.48.12-.15.35-.17.5-.05Z"/><path class="cls-11" d="M630.8,252.79c10.75,9.25,19.85,20.72,26.48,33.3.15.26.3.52.41.79l-.86-.19c-.15-.28-.28-.53-.42-.81-6.6-12.27-15.55-23.49-26.06-32.56-.15-.12-.17-.33-.03-.48.12-.15.33-.17.48-.05Z"/><path class="cls-11" d="M656.04,256.76c8.44,9.79,15.26,21.23,19.98,33.34.1.25.21.52.29.78l-.77-.17c-.12-.25-.21-.52-.31-.77h-.02c-4.68-11.88-11.42-23.09-19.69-32.73-.13-.13-.11-.36.04-.48.13-.13.35-.11.48.02Z"/><path class="cls-11" d="M682.76,269.76c6.44,7.48,11.94,15.91,16.29,24.87.12.24.24.49.35.74-.28-.05-.58-.1-.86-.16-.12-.25-.23-.5-.36-.76-4.27-8.72-9.66-16.93-15.93-24.24-.13-.13-.11-.36.04-.48.13-.13.35-.11.48.02Z"/><path class="cls-11" d="M586.59,253.68c9.91,5.61,19.08,12.82,26.93,21.16.32.33.63.66.93,1.01-.42-.13-.85-.24-1.27-.37h-.02c-.32-.35-.65-.71-.98-1.02-7.63-7.94-16.45-14.79-25.95-20.15-.17-.11-.22-.31-.13-.48.09-.17.31-.23.48-.14Z"/><path class="cls-11" d="M687.54,292.42c-.3.18-.6.35-.9.51-8.62,5.04-17.91,8.99-27.45,11.63-.19.06-.39-.05-.43-.24-.04-.18.05-.39.24-.43,9.22-2.55,18.21-6.33,26.59-11.16.3-.16.6-.34.9-.53.35.08.7.14,1.04.22Z"/><path class="cls-11" d="M667.57,288.34c-.27.18-.55.35-.83.53-9.65,6.15-20.29,10.91-31.24,13.95-.2.04-.38-.07-.43-.25-.06-.19.05-.37.23-.42,10.66-2.96,21.02-7.56,30.46-13.48.28-.18.56-.34.85-.52.31.07.64.14.96.2Z"/><path class="cls-11" d="M718.69,298.63c.06.14.03.31-.09.41-5.38,4.72-12.46,8.26-21.04,10.5-7.64,2-15.59,2.8-23.28,3.57-.19.02-.36-.12-.38-.31-.02-.19.12-.36.31-.38,7.66-.77,15.58-1.57,23.17-3.55,8.48-2.22,15.46-5.7,20.76-10.35.14-.13.36-.11.49.03.02.02.04.05.05.08Z"/><path class="cls-11" d="M712.73,296.61c.13.27.25.54.37.8.08.17,0,.38-.17.46-.17.08-.36-.03-.46-.17-6.52-14.01-15.02-26.97-25.33-38.46-.13-.14-.12-.36.03-.49.14-.13.36-.12.49.02,10.15,11.32,18.58,24.04,25.06,37.83Z"/><path class="cls-1" d="M716.87,274.88c-.01-.12-.02-.24-.03-.36,0-.02,0-.04.01-.06,0,.14.02.28.02.42Z"/><path class="cls-29" d="M695.84,216.36c-1.24.34-2.39.95-3.41,1.72-1.39.54-2.37,1.8-2.95,3.3-.26.43-.5.86-.71,1.31-.18.4-.33.8-.47,1.21-.82-4.17-1.82-8.33-3.67-12.14-2.01-4.12-5.11-7.84-9.25-9.81-2.44-1.16-5.38-1.65-7.84-.51-2.61,1.21-4.15,4.02-4.71,6.82-.24,1.22-.33,2.38-.28,3.5-3.95-8.64-8.35-14.88-17.13-21.31-2.86-2.1-9.96-4.63-13.5-4.26-7.87.81-9.81,8.59-9.45,15.07.79,14.1,9.48,27.4,21.93,34.02-2.71-.71-6.24-.53-7.74,1.49-.65.88-1.21,2.1-1.54,3.53-1.53,6.57,3,12.25,6.97,16.9,11.63,13.63,25.72,24.78,42.64,31.11-4.73-.8-8.57,4.86-7.76,9.57.8,4.72,4.16,8.91,7.9,11.91,13.47,10.79,51.2,19.74,63.9,22.34,2.23.46,4.04-1.35,4.1-3.62.03-1.23.05-2.49.05-3.76.04-23.64-5.47-53.84-12.21-65.93-1.54-2.77-4.76-6.24-7.38-8.01-2.63-1.77-6.27-2.36-9.01-.73-1.97,1.17-3.19,3.25-4.12,5.34-.57,1.3-1.06,2.63-1.46,3.99.1-1.83.15-3.66.13-5.49-.11-9.2-1.85-18.47-6.01-26.65-1.65-3.25-3.73-6.38-6.65-8.57-2.92-2.19-6.8-3.33-10.34-2.35Z"/><path class="cls-11" d="M728.23,306.72c8.2,7.83,16.43,15.56,24.59,23.25.1.07.13.21.12.32-.01.06-.04.13-.09.18-.14.13-.36.15-.52.02-6.71-6.31-13.46-12.66-20.21-19.06-.22-.2-.41-.4-.62-.6-1.24-1.18-2.49-2.35-3.72-3.53l-.26-.27h-.01c-3.29-3.15-6.59-6.3-9.85-9.48-.22-.2-.44-.41-.65-.62-2.98-2.86-5.93-5.75-8.87-8.65-.26-.25-.53-.5-.78-.76-2.3-2.26-4.59-4.54-6.89-6.82l-.56-.58c-2.16-2.16-4.33-4.34-6.46-6.53-.25-.24-.49-.49-.72-.72-1.97-2.01-3.94-4.04-5.88-6.08l-.62-.65c-1.45-1.5-2.9-3.01-4.33-4.51-.25-.26-.49-.53-.75-.81-3.14-3.33-6.26-6.7-9.35-10.07-.22-.22-.43-.47-.65-.7-5.09-5.6-10.1-11.27-14.98-17.04-.29-.35-.59-.68-.87-1.03h-.01c-8.32-9.87-16.32-20-23.91-30.44-.12-.15-.09-.37.07-.5.16-.11.38-.08.5.09,7.32,10.1,15.06,19.88,23.07,29.41.31.37.62.72.92,1.08,4.88,5.79,9.89,11.49,14.99,17.1.11.14.22.25.33.37.2.24.41.47.63.68.07.1.17.2.25.29,3.31,3.66,6.69,7.29,10.09,10.87.24.27.5.55.75.81,1.1,1.17,2.2,2.31,3.32,3.47.2.24.41.45.62.67,2.26,2.35,4.53,4.67,6.81,7.01.23.24.47.48.71.71,1.64,1.68,3.31,3.36,4.98,5.01.2.24.42.43.64.66h.01c.19.21.4.4.59.6,2.58,2.57,5.16,5.15,7.76,7.7.25.26.52.51.77.77,2.64,2.59,5.28,5.17,7.93,7.73.2.21.43.42.65.65,3.26,3.16,6.55,6.3,9.83,9.42.22.2.41.4.64.59Z"/><path class="cls-11" d="M682.24,260.94c.24.27.5.55.75.81-.37-.03-.73-.06-1.1-.12-12.75-1.53-25.06-6.86-34.82-15.1-.14-.12-.16-.35-.04-.51.13-.14.35-.17.5-.03,9.45,7.99,21.3,13.2,33.6,14.84.35.04.73.09,1.1.12Z"/><path class="cls-11" d="M669.32,217.15c2.97,10.49,3.85,21.77,2.57,32.64-.03.32-.06.63-.11.94v.02c-.22-.22-.43-.47-.65-.7.06-.32.09-.63.12-.95,1.15-10.6.26-21.53-2.62-31.76-.06-.18.05-.38.23-.44.19-.06.39.06.45.24Z"/><path class="cls-11" d="M683.1,222.55c3.96,13.95,5.26,28.86,3.83,43.33-.02.31-.04.61-.09.9l-.62-.65c.03-.32.06-.61.1-.93,1.29-14.19-.03-28.8-3.89-42.47-.06-.18.05-.38.24-.42.19-.06.38.04.44.23Z"/><path class="cls-11" d="M702.4,240.16c1.68,13.11,1.06,26.72-1.74,39.71-.06.27-.11.56-.19.83l-.56-.58c.04-.28.11-.56.17-.83h-.01c2.7-12.79,3.27-26.14,1.64-39.03-.03-.18.11-.37.3-.39.19-.03.37.1.4.29Z"/><path class="cls-11" d="M717.88,266.31c1.28,10.01,1.22,20.3-.11,30.4-.03.27-.07.55-.12.83-.22-.2-.44-.41-.65-.62.04-.28.09-.56.12-.85,1.27-9.85,1.29-19.89.06-29.66-.03-.18.11-.37.3-.39.18-.03.37.1.4.29Z"/><path class="cls-11" d="M644.87,198.41c5.29,10.37,9.06,21.69,11.06,33.23.09.47.16.92.23,1.39-.29-.35-.59-.68-.87-1.03h-.01c-.07-.49-.16-.98-.26-1.44-2.04-11.08-5.7-21.89-10.79-31.82-.08-.18-.02-.39.16-.49.17-.09.39-.02.49.15Z"/><path class="cls-11" d="M709.19,288.34c-.36-.02-.71-.04-1.05-.07-10.2-.56-20.35-2.43-29.97-5.54-.2-.05-.3-.26-.24-.44.07-.18.26-.3.45-.24,9.3,3.01,19.1,4.86,28.98,5.47.34.03.7.05,1.07.05.25.26.52.51.77.77Z"/><path class="cls-11" d="M694.45,273.6c-.33,0-.66-.01-1.01-.02-11.7-.19-23.46-2.12-34.52-5.7-.19-.08-.29-.27-.22-.46.05-.19.25-.29.43-.23,10.77,3.48,22.19,5.39,33.59,5.66.34,0,.67.02,1.02.03.23.24.47.48.71.71Z"/><path class="cls-11" d="M732.27,311.19c-.02.15-.14.28-.31.3-7.25,1-15.28.03-23.87-2.89-7.65-2.6-14.88-6.4-21.87-10.07-.17-.09-.24-.3-.15-.48.09-.17.31-.24.48-.15,6.97,3.66,14.18,7.44,21.77,10.02,8.49,2.88,16.41,3.85,23.55,2.86.19-.03.37.11.4.3,0,.03,0,.07,0,.1Z"/><path class="cls-11" d="M728.32,306.1c-.04.3-.09.6-.13.9-.03.19-.21.33-.4.3-.2-.03-.29-.23-.3-.4,2.33-15.63,2.38-31.48.06-47.09-.03-.19.11-.37.3-.4.19-.03.37.1.4.3,2.29,15.38,2.31,30.99.07,46.4Z"/><g class="cls-13"><path class="cls-11" d="M530.16,44.11c-.18.23-.22.57-.02.86l3.98,5.77.02-.02,5.31,7.7,40.44,29.45-.07.09,2.56,1.86,3.03,2.21h0l2.12,1.54,5.86,4.27c1.62,1.18,3.89.82,5.06-.8l2.98-4.09c1.18-1.62.82-3.89-.8-5.06l-6.61-4.81-.03.05-47.39-34.51-15.61-4.78c-.34-.1-.65.04-.81.28Z"/><path class="cls-11" d="M607.31-13.47l-61.12,22.98h0s0,0,0,0l-.05.02s0,.03-.01.05l-6.34,6.93-3.61,3.95c-.22.24-.08.64.25.67l1.24.14,13.41,1.49s.03.02.04.03l.05-.02h0L612.29-.21c.73-.27,1.1-1.09.82-1.82l-1.19-3.16h0l-1.61-4.29h0s-1.19-3.16-1.19-3.16c-.27-.73-1.09-1.1-1.82-.82Z"/><path class="cls-11" d="M558.68,40.61l3.43,2.91,7.86,6.67s.01.03.02.05h.06s63.82,15.18,63.82,15.18c.76.18,1.53-.29,1.71-1.05l.76-3.2h0s1.09-4.58,1.09-4.58h0s.78-3.3.78-3.3c.18-.76-.29-1.53-1.05-1.71l-63.87-15.18s-.03.02-.04.04l-8.21,1.98h0s-6.19,1.49-6.19,1.49c-.32.08-.42.49-.17.7Z"/></g><rect class="cls-15" x="558.56" y="44.05" width="12.14" height="58.91" transform="translate(172.86 486.7) rotate(-53.94)"/><rect class="cls-24" x="561.81" y="44.05" width="5.64" height="58.91" transform="translate(172.86 486.7) rotate(-53.94)"/><path class="cls-14" d="M537.24,61.08l7.15-9.82-15.61-4.78c-.67-.2-1.21.55-.82,1.12l9.28,13.47Z"/><path class="cls-11" d="M531.92,53.4l3.53-4.84-6.68-2.05c-.67-.2-1.21.55-.82,1.12l3.98,5.77Z"/><path class="cls-16" d="M586.81,88.27h12.31v8.18c0,2-1.62,3.63-3.63,3.63h-5.06c-2,0-3.63-1.62-3.63-3.63v-8.18h0Z" transform="translate(167.81 518.11) rotate(-53.94)"/><rect class="cls-11" x="579.14" y="83.66" width="12.14" height="9.95" transform="translate(169.1 509.56) rotate(-53.94)"/><rect class="cls-10" x="579.08" y="86.56" width="12.14" height="4.05" transform="translate(169.11 509.49) rotate(-53.94)"/><path class="cls-14" d="M548.98,25.43l-14.06-1.56c-.62-.07-.89-.81-.47-1.26l9.55-10.43,4.98,13.26Z"/><path class="cls-17" d="M538.26,18.45l-4.28,4.67c-.22.24-.08.64.25.67l6.3.7c-.09-.86-.3-1.99-.78-3.25-.45-1.19-1.01-2.12-1.49-2.8Z"/><path class="cls-29" d="M609.74-2.53l-62.49,23.5c-.58,1.83.05,3.49,1.69,4.48l61.17-23c.73-.27,1.1-1.09.82-1.82l-1.19-3.16Z"/><path class="cls-17" d="M608.09-6.91l-62.49,23.5c-.58,1.83.05,3.49,1.69,4.48l62.49-23.5-1.69-4.48Z"/><path class="cls-29" d="M605.12-10.8l-61.17,23c-.58,1.83.05,3.49,1.69,4.48l62.49-23.5-1.19-3.16c-.27-.73-1.09-1.1-1.82-.82Z"/><path class="cls-14" d="M567.86,52.91l-10.83-9.19c-.47-.4-.29-1.17.31-1.32l13.81-3.33-3.29,13.84Z"/><path class="cls-23" d="M562.84,41.07l-6.19,1.49c-.32.08-.42.49-.17.7l4.85,4.12c.4-.76.87-1.83,1.17-3.15.29-1.24.35-2.34.33-3.17Z"/><path class="cls-10" d="M634.16,63.72l-65.25-15.51c-1.51,1.2-1.92,2.94-1.11,4.68l63.87,15.18c.76.18,1.53-.29,1.71-1.05l.78-3.3Z"/><path class="cls-23" d="M635.25,59.14l-65.25-15.51c-1.51,1.2-1.92,2.94-1.11,4.68l65.25,15.51,1.11-4.68Z"/><path class="cls-10" d="M634.96,54.23l-63.87-15.18c-1.51,1.2-1.92,2.94-1.11,4.68l65.25,15.51.78-3.3c.18-.76-.29-1.53-1.05-1.71Z"/><path class="cls-12" d="M443.48,92.56l61.62-105.06c.55-.94.62-3.11-1.78-4.49h-.01c-.12-.12-.24-.23-.39-.32l-.91-.53c.15-.58.04-1.2-.32-1.68.36-.89.03-1.94-.83-2.44l-79.42-46.59-3.35,5.71-2.97-1.72c-.84-.48-1.91-.2-2.4.64h0c-.48.84-.2,1.91.64,2.4l2.95,1.71-3.5,5.97-2.92-1.68c-.84-.48-1.91-.2-2.4.64-.48.84-.2,1.91.64,2.4l2.9,1.67-3.5,5.97-2.86-1.65c-.84-.48-1.91-.2-2.4.64-.48.84-.2,1.91.64,2.4l2.84,1.64-3.5,5.97-2.8-1.62c-.84-.48-1.91-.2-2.4.64-.48.84-.2,1.91.64,2.4l2.78,1.6-3.5,5.97-2.74-1.58c-.84-.48-1.91-.2-2.4.64-.48.84-.2,1.91.64,2.4l2.72,1.57-3.5,5.97-2.68-1.55c-.84-.48-1.91-.2-2.4.64s-.2,1.91.64,2.4l2.66,1.54-3.5,5.97-2.62-1.51c-.84-.48-1.91-.2-2.4.64-.48.84-.2,1.91.64,2.4l2.6,1.5-3.5,5.97-2.56-1.48c-.84-.48-1.91-.2-2.4.64s-.2,1.91.64,2.4l2.54,1.47-3.5,5.97-2.5-1.45c-.84-.48-1.91-.2-2.4.64-.48.84-.2,1.91.64,2.4l2.48,1.43-3.5,5.97-2.44-1.41c-.84-.48-1.91-.2-2.4.64-.48.84-.2,1.91.64,2.4l2.42,1.4-3.5,5.97-2.38-1.38c-.84-.48-1.91-.2-2.4.64-.48.84-.2,1.91.64,2.4l2.36,1.37-5.77,9.83,1.02.6-.77,1.32,2.54,1.49-.73,1.25,1.48,2.1,79.42,46.59c.94.55,2.16.24,2.71-.71Z"/><path class="cls-23" d="M440.76,85.54l-79.42-46.59-1.48-2.1,65.11-106.38,78.35,44.8c2.41,1.38,2.34,3.55,1.78,4.49l-61.62,105.06c-.55.94-1.77,1.26-2.71.71Z"/><path class="cls-10" d="M439.28,83.44l-79.42-46.59,63.63-108.48,79.42,46.59c.94.55,1.26,1.77.71,2.71l-61.62,105.06c-.55.94-1.77,1.26-2.71.71Z"/><path class="cls-32" d="M437.47,80.7l-79.42-46.59,63.63-108.48,79.42,46.59c.94.55,1.26,1.77.71,2.71l-61.62,105.06c-.55.94-1.77,1.26-2.71.71Z"/><path class="cls-8" d="M437.22,78.79l-79.42-46.59,63.63-108.48,79.42,46.59c.94.55,1.26,1.77.71,2.71l-61.62,105.06c-.55.94-1.77,1.26-2.71.71Z"/><line class="cls-2" x1="472.33" y1="1.62" x2="416.65" y2="-30.55"/><line class="cls-2" x1="468.73" y1="7.64" x2="413.08" y2="-24.51"/><line class="cls-2" x1="465.13" y1="13.66" x2="409.51" y2="-18.48"/><line class="cls-2" x1="461.54" y1="19.68" x2="405.94" y2="-12.44"/><line class="cls-2" x1="457.94" y1="25.71" x2="402.37" y2="-6.4"/><line class="cls-2" x1="454.35" y1="31.73" x2="398.8" y2="-.36"/><line class="cls-2" x1="450.75" y1="37.75" x2="395.23" y2="5.67"/><line class="cls-2" x1="447.15" y1="43.78" x2="391.66" y2="11.71"/><line class="cls-2" x1="443.56" y1="49.8" x2="388.09" y2="17.75"/><line class="cls-2" x1="439.96" y1="55.82" x2="384.52" y2="23.79"/><path class="cls-32" d="M390.82-.08c-.92,1.58-2.94,2.13-4.52,1.21-1.58-.92-2.13-2.94-1.21-4.52.92-1.58,2.94-2.13,4.52-1.21,1.58.92,2.13,2.94,1.21,4.52Z"/><path class="cls-32" d="M385.63,8.91c-.92,1.58-2.94,2.13-4.52,1.21-1.58-.92-2.13-2.94-1.21-4.52.92-1.58,2.94-2.13,4.52-1.21,1.58.92,2.13,2.94,1.21,4.52Z"/><path class="cls-32" d="M380.44,17.89c-.92,1.58-2.94,2.13-4.52,1.21-1.58-.92-2.13-2.94-1.21-4.52.92-1.58,2.94-2.13,4.52-1.21,1.58.92,2.13,2.94,1.21,4.52Z"/><path class="cls-32" d="M375.25,26.87c-.92,1.58-2.94,2.13-4.52,1.21-1.58-.92-2.13-2.94-1.21-4.52.92-1.58,2.94-2.13,4.52-1.21,1.58.92,2.13,2.94,1.21,4.52Z"/><path class="cls-11" d="M381.38,8.58l-9.74-5.63c-.84-.48-1.13-1.56-.64-2.4h0c.48-.84,1.56-1.13,2.4-.64l9.74,5.63c.84.48,1.13,1.56.64,2.4h0c-.48.84-1.56,1.13-2.4.64Z"/><path class="cls-11" d="M376.16,17.61l-9.74-5.63c-.84-.48-1.13-1.56-.64-2.4h0c.48-.84,1.56-1.13,2.4-.64l9.74,5.63c.84.48,1.13,1.56.64,2.4h0c-.48.84-1.56,1.13-2.4.64Z"/><path class="cls-11" d="M370.95,26.63l-9.74-5.63c-.84-.48-1.13-1.56-.64-2.4h0c.48-.84,1.56-1.13,2.4-.64l9.74,5.63c.84.48,1.13,1.56.64,2.4h0c-.48.84-1.56,1.13-2.4.64Z"/><path class="cls-6" d="M185.26,291.48l-4.27-2.31-1.18-3.33v-.02s-75.85-43.44-75.85-43.44c-2.45-1.41-5.61-.55-7.02,1.91l-54.8,95.7c-1.41,2.45-.55,5.61,1.91,7.02l80.25,45.71c2.41,1.37,5.48.53,6.84-1.89l54.83-96.81c.53-.89.21-2.05-.7-2.55Z"/><polygon class="cls-4" points="181.58 286.64 178.29 277.39 118.35 382.06 126.92 382.1 181.58 286.64"/><line class="cls-2" x1="176.81" y1="282.17" x2="122.71" y2="379.14"/><line class="cls-2" x1="178.33" y1="284.7" x2="125.2" y2="378.75"/><line class="cls-2" x1="179.86" y1="287.22" x2="127.28" y2="378.6"/><path class="cls-5" d="M178.31,277.39l-75.86-43.44c-2.45-1.41-5.61-.55-7.02,1.91l-54.8,95.7c-1.41,2.45-.55,5.61,1.91,7.02l75.86,43.44,59.91-104.62Z"/><path class="cls-7" d="M158.78,274.35l-51.43-29.45c-1.25,1.86-3.1,3.12-5.14,3.68h-.05c-2.03.55-4.25.4-6.25-.57l-44.56,77.82c1.86,1.25,3.12,3.1,3.67,5.14.56,2.04.4,4.28-.57,6.29l51.43,29.45c1.25-1.86,3.1-3.12,5.14-3.67,2.04-.56,4.28-.4,6.29.57l44.56-77.82c-1.86-1.25-3.12-3.1-3.68-5.14-.55-2.04-.4-4.28.57-6.29h0ZM107.45,243.47l52.51,30.07c.31.18.42.57.24.88-1.06,1.85-1.27,3.97-.74,5.89.52,1.92,1.77,3.64,3.62,4.7.31.18.42.57.24.88l-45.18,78.9c-.18.31-.57.42-.88.24-1.85-1.06-3.97-1.27-5.88-.74h0c-1.92.52-3.64,1.77-4.7,3.62-.18.31-.57.42-.88.24l-52.46-30.04c-.29-.14-.44-.47-.34-.79h0s.03-.08.05-.12c1.06-1.85,1.26-3.97.74-5.88h0c-.52-1.92-1.77-3.64-3.62-4.7h0c-.31-.18-.42-.57-.24-.88l45.18-78.9c.18-.31.57-.42.88-.24,1.84,1.05,3.94,1.26,5.85.75h.04c1.92-.53,3.64-1.78,4.7-3.63.18-.31.57-.42.88-.24Z"/><path class="cls-7" d="M166.94,275.79c-1.38-.79-3.14-.31-3.93,1.07-.79,1.38-.31,3.14,1.07,3.93,1.38.79,3.14.31,3.93-1.07.79-1.38.31-3.14-1.07-3.93Z"/><path class="cls-7" d="M102.33,238.79c-1.38-.79-3.14-.31-3.93,1.07-.79,1.38-.31,3.14,1.07,3.93,1.38.79,3.14.31,3.93-1.07.79-1.38.31-3.14-1.07-3.93Z"/><path class="cls-4" d="M128.72,269.27c9.91,5.45,15.75,13.85,13.05,18.75-2.7,4.9-12.92,4.45-22.82-1-9.91-5.45-15.75-13.85-13.05-18.75,2.7-4.9,12.92-4.45,22.82,1Z"/><polygon class="cls-5" points="181.58 286.64 182.29 289.14 129.07 382.02 126.92 382.1 181.58 286.64"/></g><rect class="cls-9" x="324.23" y="224.5" width="91.55" height="36.22" rx="17.62" ry="17.62"/><path class="cls-28" d="M343.71,235.83c1.34,0,2.38.88,2.97,2.42h2.07v-3.35h1.85v14.83h-1.85v-5.01h-2.07c-.58,1.56-1.63,2.45-2.97,2.45-2.08,0-3.43-2.18-3.43-5.69,0-3.49,1.35-5.66,3.43-5.65ZM343.71,245.3c1.04,0,1.7-1.33,1.7-3.82s-.65-3.82-1.7-3.81c-1.05,0-1.66,1.34-1.65,3.81,0,2.48.6,3.83,1.65,3.82ZM347.2,241.48c0,.58-.04,1.13-.12,1.64h1.68v-3.29h-1.68c.07.51.12,1.06.12,1.65ZM353.82,250.49h-1.88v-15.86h1.88v15.86Z"/><path class="cls-28" d="M360.15,235.53c2.45,0,4.27,1.58,4.28,3.82-.01,2.26-1.83,3.84-4.28,3.84s-4.3-1.58-4.29-3.84c-.01-2.24,1.83-3.83,4.29-3.82ZM357.63,244.67h10.58v5.81h-1.96v-4.22h-8.62v-1.59ZM360.15,241.52c1.35,0,2.37-.83,2.37-2.18,0-1.33-1.02-2.15-2.37-2.16-1.37,0-2.38.83-2.37,2.16-.01,1.35,1,2.19,2.37,2.18ZM370.36,238.42h-2.15v1.83h2.15v1.63h-2.15v2.13h-1.96v-9.38h1.96v2.21h2.15v1.58Z"/><path class="cls-28" d="M371.16,237.05h3.75v-2.21h1.95v2.21h3.66v1.58h-9.37v-1.58ZM375.9,239.66c2.29,0,3.98,1.55,3.99,3.74-.01,2.19-1.71,3.73-3.99,3.73s-4.02-1.54-4.01-3.73c-.01-2.19,1.69-3.74,4.01-3.74ZM375.9,245.51c1.22.01,2.11-.81,2.12-2.12-.01-1.29-.9-2.14-2.12-2.14s-2.15.85-2.14,2.14c-.01,1.3.89,2.13,2.14,2.12ZM383.68,240.95h2.45v1.61h-2.45v7.93h-1.93v-15.86h1.93v6.32Z"/><path class="cls-28" d="M393.35,237.85h-5.62v-1.55h7.61c0,4.73-1.84,8.74-7.39,11.38l-1.03-1.57c4.15-1.97,6.08-4.65,6.43-8.27ZM400.07,250.49h-1.97v-15.86h1.97v15.86Z"/><path class="cls-18" d="M195.54,127.82h-29.2v-6.45h10.3v-3.55h8.6v3.55h10.3v6.45ZM167.84,137.27c0-5.5,6-8.4,13.1-8.4s13.1,2.9,13.1,8.4-6,8.4-13.1,8.4-13.1-2.85-13.1-8.4ZM168.94,147.17h37.9v14.6h-8.6v-7.55h-29.3v-7.05ZM175.89,137.27c0,1.45,2,2.4,5.05,2.4s5.05-.95,5.05-2.4-2-2.4-5.05-2.4-5.05.95-5.05,2.4ZM211.84,135.62h-5v10.05h-8.45v-27.1h8.45v8.85h5v8.2Z"/><path class="cls-18" d="M258.04,152.02v7.75h-43.2v-7.75h6.55v-14.85h8.5v14.85h4.45v-14.85h8.5v14.85h15.2ZM247.14,127.32h-30.1v-7.75h38.75v28.15h-8.65v-20.4Z"/><path class="cls-18" d="M289.59,139.07h-25.45v-20h8.15v3.55h9.15v-3.55h8.15v20ZM304.89,155.62v5.65h-38.6v-12.5h29.85v-1.65h-29.95v-5.65h38.25v12.5h-29.85v1.65h30.3ZM281.44,132.57v-3.6h-9.15v3.6h9.15ZM296.14,137.07h-4.55v-7.05h4.55v-2.45h-4.55v-7.05h4.55v-1.95h8.3v21.4h-8.3v-2.9Z"/><path class="cls-18" d="M368.24,139.97v6.9h-17.35v5.1h-8.5v-5.1h-17.35v-6.9h43.2ZM336.14,154.32h30.1v6.95h-38.7v-12h8.6v5.05ZM365.64,137.52h-38v-18.95h8.25v3.2h21.5v-3.2h8.25v18.95ZM357.39,131.17v-3.2h-21.5v3.2h21.5Z"/><path class="cls-18" d="M372.98,143.87v-7.75c6.6-.8,11.15-8.1,11.3-17.35l8.5.5c0,3.3-.55,6.5-1.6,9.45l11.9,9-5,5.65-10.35-8c-3.55,4.85-8.7,8.15-14.75,8.5ZM376.18,145.97h38.4v15.8h-8.6v-8.55h-29.8v-7.25ZM414.59,118.57v25.9h-8.45v-13h-7.7v-7.65h7.7v-5.25h8.45Z"/><path class="cls-18" d="M435.13,140.07v-7.4c6.65-.8,11.15-6.5,11.3-13.9l8.5.5c0,2.65-.5,5.2-1.4,7.55l11.25,6.95-4.3,5.75-10.55-6.7c-3.5,4.15-8.65,6.9-14.8,7.25ZM477.19,155.47v5.8h-38.6v-12.55h29.8v-1.65h-29.9v-5.8h38.25v12.55h-29.8v1.65h30.25ZM468.29,129.47h-7.7v-7.4h7.7v-3.5h8.45v21.2h-8.45v-10.3Z"/><path class="cls-18" d="M509.98,140.37h-25.45v-21.3h25.45v21.3ZM525.24,152.22c0,7.1-8.6,9.55-19.5,9.55s-19.5-2.45-19.5-9.55,8.6-9.55,19.5-9.55,19.5,2.45,19.5,9.55ZM501.68,126.02h-8.85v7.4h8.85v-7.4ZM516.13,152.22c0-2-4.65-2.8-10.4-2.8s-10.4.8-10.4,2.8,4.65,2.8,10.4,2.8,10.4-.75,10.4-2.8ZM516.54,138.17h-4.55v-7.2h4.55v-2.9h-4.55v-7.2h4.55v-2.3h8.3v23.5h-8.3v-3.9Z"/><path class="cls-18" d="M550.88,151.82c3.95,0,8.4-.5,11.05-1.7v7.45c-2.65,1.2-6.95,1.7-11.2,1.7h-19.3v-7.45h10.5v-3.6c-5.25-1-8.75-3.9-8.75-8.55,0-5.8,5.5-8.9,13.05-8.9s13.05,3.1,13.05,8.9c0,4.7-3.55,7.6-8.9,8.55v3.6h.5ZM560.78,129.47h-29.2v-7.2h10.2v-4h8.7v4h10.3v7.2ZM546.23,141.92c3.05,0,5.15-.75,5.15-2.25s-2.1-2.25-5.15-2.25-5.15.75-5.15,2.25,2.1,2.25,5.15,2.25ZM572.83,118.57v42.7h-8.45v-42.7h8.45Z"/><path class="cls-3" d="M191.64,191.89v-2.11c5.49-.02,8.94-1.97,8.94-6.1v-.74h-8.94v-2.06h11.22v2.42c0,5.95-4.47,8.59-11.22,8.59ZM192.3,193.74h16.46v7.13h-2.28v-5.06h-14.18v-2.06ZM211.49,187.19h-2.74v5.42h-2.26v-12.24h2.26v4.54h2.74v2.28Z"/><path class="cls-3" d="M232.61,184.14h-13.22v-1.9h5.47v-2.23h2.28v2.23h5.47v1.9ZM220.23,189.2c0-2.47,2.53-3.96,5.77-3.96s5.74,1.49,5.74,3.96-2.51,3.98-5.74,3.98-5.77-1.49-5.77-3.98ZM220.62,194.55h16.46v6.31h-2.28v-4.27h-14.18v-2.04ZM222.42,189.2c0,1.27,1.39,2.18,3.58,2.18s3.58-.91,3.58-2.18-1.41-2.16-3.58-2.16-3.58.91-3.58,2.16ZM239.81,187.88h-2.74v5.57h-2.26v-13.08h2.26v5.23h2.74v2.28Z"/><path class="cls-3" d="M260.83,197.7v2.18h-19.45v-2.18h3.78v-8.23h2.26v8.23h3.83v-8.23h2.28v8.23h7.29ZM257.28,183.3h-14.73v-2.21h17.03v13.54h-2.3v-11.33Z"/><path class="cls-3" d="M270.62,197.34c5.31-.02,8.5-4.37,8.5-11.23v-2.81h-8.5v-2.18h10.81v4.94c0,8.21-4.15,13.54-10.81,13.54v-2.26ZM285.62,180.37h2.26v20.5h-2.26v-20.5Z"/><path class="cls-3" d="M302.49,191.17v1.73h7.25v4.68h-14.54v1.32h14.89v1.73h-17.1v-4.7h14.54v-1.3h-14.59v-1.73h7.27v-1.73h-8.57v-1.82h19.45v1.82h-8.59ZM300.85,185.67c-1.98,1.58-5.36,2.38-8.44,2.45v-1.8c3.12-.1,6.88-1.03,7.75-3.12h-7.39v-1.78h7.43v-1.87h2.3v1.87h7.41v1.78h-7.39c-.09.36-.23.7-.41,1.01l8.18,2.18-.5,1.75-8.96-2.47Z"/><path class="cls-3" d="M339.4,191.24v2.02h-8.59v3.19h-2.28v-3.19h-8.57v-2.02h19.45ZM323.6,198.61h14.79v2.02h-17.1v-5.52h2.3v3.5ZM337.99,189.23h-16.64v-8.74h2.23v2.47h12.2v-2.47h2.21v8.74ZM335.78,187.33v-2.54h-12.2v2.54h12.2Z"/><path class="cls-3" d="M341.91,192.25v-2.21c3.62-.7,5.79-4.8,5.84-9.48l2.26.14c0,1.75-.27,3.41-.82,4.92l6.06,4.82-1.34,1.63-5.61-4.49c-1.39,2.5-3.6,4.27-6.38,4.66ZM343.46,193.98h16.73v6.89h-2.3v-4.82h-14.43v-2.06ZM360.19,180.37v12.48h-2.26v-6.58h-4.7v-2.16h4.7v-3.74h2.26Z"/><path class="cls-3" d="M381.06,191.82h-4.24v4.58h-2.23v-4.58h-4.24v-2.11h4.24v-4.58h2.23v4.58h4.24v2.11Z"/><path class="cls-3" d="M403.24,184.14h-13.22v-1.9h5.47v-2.23h2.28v2.23h5.47v1.9ZM390.86,189.2c0-2.47,2.53-3.96,5.77-3.96s5.75,1.49,5.75,3.96-2.51,3.98-5.75,3.98-5.77-1.49-5.77-3.98ZM391.25,194.55h16.46v6.31h-2.28v-4.27h-14.18v-2.04ZM393.05,189.2c0,1.27,1.39,2.18,3.58,2.18s3.58-.91,3.58-2.18-1.41-2.16-3.58-2.16-3.58.91-3.58,2.16ZM410.44,187.88h-2.74v5.57h-2.26v-13.08h2.26v5.23h2.74v2.28Z"/><path class="cls-3" d="M431.46,197.7v2.18h-19.45v-2.18h3.79v-8.23h2.26v8.23h3.83v-8.23h2.28v8.23h7.29ZM427.91,183.3h-14.73v-2.21h17.03v13.54h-2.3v-11.33Z"/><path class="cls-3" d="M433.95,191.75v-2.16c3.08-.91,4.22-4.44,4.22-8.98l2.17.07c0,1.58-.14,3.05-.43,4.37l4.63,4.54-1.48,1.56-3.85-3.89c-1,2.4-2.71,4.01-5.24,4.49ZM452.97,196.81c0,3.02-3.99,4.06-8.64,4.06s-8.64-1.03-8.64-4.06,3.99-4.06,8.64-4.06,8.64,1.03,8.64,4.06ZM450.57,196.81c0-1.56-3.05-2.11-6.25-2.11s-6.25.55-6.25,2.11,3.05,2.11,6.25,2.11,6.25-.55,6.25-2.11ZM447.22,191.67h-2.14v-11.19h2.14v3.74h3.31v-3.86h2.14v11.98h-2.14v-5.93h-3.31v5.26Z"/><path class="cls-3" d="M463.2,192.25h-7.32v-1.73h5.4v-1.25c-2.8-.19-4.47-1.13-4.47-2.64,0-1.7,2.12-2.69,5.61-2.69s5.61.98,5.61,2.69c0,1.51-1.69,2.47-4.51,2.66v1.22c2.58-.02,4.95-.26,6.16-.79v1.7c-1.23.58-3.72.82-6.47.82ZM468.97,183.11h-13.02v-1.68h5.29v-1.63h2.3v1.63h5.42v1.68ZM459.26,198.95h14.79v1.66h-17.01v-4.39h14.29v-1.13h-14.34v-1.66h16.55v4.39h-14.29v1.13ZM462.43,187.71c2.32,0,3.49-.48,3.49-1.08s-1.16-1.08-3.49-1.08-3.49.48-3.49,1.08,1.16,1.08,3.49,1.08ZM476.24,184.69v2.06h-2.69v5.57h-2.26v-11.95h2.26v4.32h2.69Z"/><path class="cls-3" d="M503.65,197.7v2.18h-19.45v-2.18h8.53v-3.86h-7.23v-7.39h14.63v-3.22h-14.63v-2.11h16.87v7.37h-14.61v3.24h14.91v2.11h-7.64v3.86h8.62Z"/><path class="cls-3" d="M506.14,197.65h19.45v2.23h-19.45v-2.23ZM507.41,181.11h16.89v2.21h-14.59v7.68h14.82v2.21h-17.12v-12.1Z"/><path class="cls-3" d="M537.1,190.64h-8.43v-9.77h8.43v9.77ZM544.58,192.39h2.21v8.21h-17.01v-8.21h2.21v2.04h12.58v-2.04ZM535,182.87h-4.24v5.81h4.24v-5.81ZM544.58,198.68v-2.35h-12.58v2.35h12.58ZM546.79,180.37v10.87h-2.14v-4.68h-3.17v4.46h-2.14v-10.54h2.14v3.91h3.17v-4.03h2.14Z"/></g></g></svg>