<?xml version="1.0" encoding="UTF-8"?><svg id="Layer_1" xmlns="http://www.w3.org/2000/svg" viewBox="0 0 35.35 35"><defs><style>.cls-1{fill:#0031b7;}.cls-2{fill:#fbffff;}.cls-3{fill:#4858a1;}.cls-4{fill:#fff;}.cls-5{opacity:.2;}</style></defs><g id="_331_Alarm_Clock_Stopwatch_Time"><ellipse class="cls-2" cx="17.67" cy="17.5" rx="2.18" ry="2.16"/><path class="cls-4" d="M19.91,17.5c0-1.22-1-2.22-2.24-2.22s-2.24.99-2.24,2.22,1,2.22,2.24,2.22,2.24-.99,2.24-2.22ZM27.04,8.22c2.42,2.39,3.89,5.66,3.89,9.28s-1.47,6.88-3.89,9.28c-2.42,2.39-5.71,3.85-9.37,3.85s-6.95-1.46-9.37-3.85c-2.42-2.39-3.89-5.66-3.89-9.28s1.47-6.88,3.89-9.28c2.42-2.39,5.71-3.85,9.37-3.85s6.95,1.46,9.37,3.85Z"/><g class="cls-5"><path class="cls-1" d="M17.67.76c9.37,0,16.97,7.53,16.97,16.8s-7.6,16.74-16.97,16.74S.77,26.78.77,17.5,8.31.76,17.67.76ZM27.04,26.78c2.42-2.39,3.89-5.66,3.89-9.28s-1.47-6.88-3.89-9.28c-2.42-2.39-5.71-3.85-9.37-3.85s-6.95,1.46-9.37,3.85c-2.42,2.39-3.89,5.66-3.89,9.28s1.47,6.88,3.89,9.28c2.42,2.39,5.71,3.85,9.37,3.85s6.95-1.46,9.37-3.85Z"/></g><path class="cls-3" d="M17.67,35c-4.71,0-9.13-1.81-12.49-5.13C1.83,26.54,0,22.17,0,17.5S1.83,8.46,5.18,5.13C8.54,1.81,12.96,0,17.67,0s9.13,1.81,12.49,5.13c3.36,3.33,5.18,7.7,5.18,12.37s-1.83,9.04-5.18,12.37c-3.36,3.33-7.78,5.13-12.49,5.13ZM17.67,1.46C8.72,1.46,1.47,8.63,1.47,17.5s7.25,16.04,16.2,16.04,16.2-7.17,16.2-16.04S26.63,1.46,17.67,1.46Z"/><path class="cls-3" d="M17.67,31.38c-3.71,0-7.25-1.46-9.9-4.08-2.65-2.63-4.12-6.13-4.12-9.8s1.47-7.17,4.12-9.8c2.65-2.63,6.19-4.08,9.9-4.08s7.25,1.46,9.9,4.08c2.65,2.63,4.12,6.13,4.12,9.8s-1.47,7.17-4.12,9.8c-2.65,2.63-6.19,4.08-9.9,4.08ZM17.67,5.13c-3.36,0-6.48,1.28-8.84,3.62-2.36,2.33-3.65,5.48-3.65,8.75s1.3,6.42,3.65,8.75c2.36,2.33,5.54,3.62,8.84,3.62s6.48-1.28,8.84-3.62c2.36-2.33,3.65-5.48,3.65-8.75s-1.3-6.42-3.65-8.75c-2.36-2.33-5.48-3.62-8.84-3.62Z"/><path class="cls-3" d="M17.67,20.42c-1.65,0-2.95-1.28-2.95-2.92s1.3-2.92,2.95-2.92,2.95,1.28,2.95,2.92-1.3,2.92-2.95,2.92ZM17.67,16.04c-.82,0-1.47.64-1.47,1.46s.65,1.46,1.47,1.46,1.47-.64,1.47-1.46-.65-1.46-1.47-1.46Z"/><path class="cls-3" d="M17.67,8.75c-.41,0-.77-.35-.77-.76v-3.67c0-.41.35-.76.77-.76s.77.35.77.76v3.67c0,.41-.35.76-.77.76Z"/><path class="cls-3" d="M17.67,31.38c-.41,0-.77-.35-.77-.76v-3.67c0-.41.35-.76.77-.76s.77.35.77.76v3.67c0,.41-.35.76-.77.76Z"/><path class="cls-3" d="M24.45,11.55c-.18,0-.35-.06-.53-.23-.29-.29-.29-.76,0-1.05l2.59-2.57c.29-.29.77-.29,1.06,0s.29.76,0,1.05l-2.59,2.57c-.18.12-.35.23-.53.23Z"/><path class="cls-3" d="M8.31,27.53c-.18,0-.35-.06-.53-.23-.29-.29-.29-.76,0-1.05l2.59-2.57c.29-.29.77-.29,1.06,0,.29.29.29.76,0,1.05l-2.59,2.57c-.18.12-.35.23-.53.23Z"/><path class="cls-3" d="M30.93,18.26h-3.71c-.41,0-.77-.35-.77-.76s.35-.76.77-.76h3.71c.41,0,.77.35.77.76s-.35.76-.77.76Z"/><path class="cls-3" d="M8.13,18.26h-3.71c-.41,0-.77-.35-.77-.76s.35-.76.77-.76h3.71c.41,0,.77.35.77.76-.06.41-.41.76-.77.76Z"/><path class="cls-3" d="M27.04,27.53c-.18,0-.35-.06-.53-.23l-2.59-2.57c-.29-.29-.29-.76,0-1.05.3-.29.77-.29,1.06,0l2.59,2.57c.29.29.29.76,0,1.05-.18.12-.35.23-.53.23Z"/><path class="cls-3" d="M10.9,11.55c-.18,0-.35-.06-.53-.23l-2.59-2.57c-.29-.29-.29-.76,0-1.05s.77-.29,1.06,0l2.59,2.57c.29.29.29.76,0,1.05-.18.12-.35.23-.53.23Z"/><path class="cls-3" d="M17.67,16.04c-.41,0-.77-.35-.77-.76v-4.38c0-.41.35-.76.77-.76s.77.35.77.76v4.38c0,.41-.35.76-.77.76Z"/><path class="cls-3" d="M24.33,18.26h-4.42c-.41,0-.77-.35-.77-.76s.35-.76.77-.76h4.42c.41,0,.77.35.77.76-.06.41-.41.76-.77.76Z"/></g></svg>