<?xml version="1.0" encoding="UTF-8"?><svg id="Layer_1" xmlns="http://www.w3.org/2000/svg" viewBox="0 0 23.8 23.99"><defs><style>.cls-1{fill:#7985ac;}</style></defs><path class="cls-1" d="M17.74,1.54C15.6.33,13.08-.22,10.63.08c-1.61.19-3.18.67-4.59,1.47C3.66,2.9,1.76,5.09.78,7.65-.09,9.9-.22,12.42.33,14.77c.62,2.65,2.19,5.06,4.33,6.73,1.87,1.44,4.17,2.32,6.53,2.46,3.09.22,6.21-.96,8.53-2.99,1.64-1.48,2.91-3.38,3.54-5.5.76-2.51.72-5.28-.22-7.74-.98-2.6-2.86-4.86-5.3-6.2ZM20.28,16.25c-1.17,2.38-3.38,4.23-5.94,4.93-1.49.42-3.08.45-4.59.09-2.58-.58-4.85-2.35-6.1-4.68-.9-1.65-1.33-3.56-1.17-5.43.2-2.57,1.5-5.02,3.5-6.65,1.17-.91,2.55-1.55,4.01-1.85,2.14-.47,4.43-.12,6.34.94,2.05,1.09,3.67,2.96,4.44,5.15.87,2.43.66,5.2-.49,7.51Z"/><path class="cls-1" d="M12.69,7.1c-.91-.7-2.29.58-1.74,1.56.5.79,1.26,1.37,1.89,2.05-1.63,0-3.25.03-4.87.03-.73-.06-1.32.68-1.21,1.37.07.6.63,1.09,1.24,1.06,1.58,0,3.16.05,4.74,0-.64.59-1.31,1.17-1.79,1.9-.48.74.19,1.81,1.04,1.81.38.05.69-.21.94-.46,1.16-1.13,2.27-2.31,3.44-3.43.4-.36.65-.93.48-1.46-.15-.39-3-3.31-4.17-4.42Z"/></svg>