<?xml version="1.0" encoding="UTF-8"?><svg id="Layer_1" xmlns="http://www.w3.org/2000/svg" viewBox="0 0 40.75 40.28"><defs><style>.cls-1{fill:#0031b7;}.cls-2{fill:#4858a1;}.cls-3{fill:#fff;}.cls-4{opacity:.2;}</style></defs><g id="_341_Device_Education_Projector_School"><path class="cls-3" d="M27.19,15.1v8.39h-8.47v-2.55c3.25,0,5.97-2.62,5.97-5.91h2.51v.07Z"/><path class="cls-3" d="M18.71,15.1h5.97c0,3.22-2.64,5.91-5.97,5.91v-5.91Z"/><path class="cls-3" d="M24.68,15.1h-5.97v5.91c-3.25,0-5.97-2.62-5.97-5.91s2.64-5.91,5.97-5.91,5.97,2.69,5.97,5.91Z"/><path class="cls-3" d="M20.41,36.12c.94,0,1.69.75,1.69,1.68s-.76,1.68-1.69,1.68-1.7-.75-1.7-1.68.76-1.68,1.7-1.68Z"/><polygon class="cls-3" points="37.36 29.4 37.36 32.76 3.46 32.76 3.46 29.4 5.15 29.4 35.66 29.4 37.36 29.4"/><g class="cls-4"><polygon class="cls-1" points="39.93 .87 39.93 4.23 35.66 4.23 5.15 4.23 .95 4.23 .95 .87 39.93 .87"/></g><g class="cls-4"><path class="cls-1" d="M35.66,4.23v25.17H5.15V4.23h30.51ZM27.19,23.5v-8.39h-2.58c0-3.22-2.64-5.91-5.97-5.91s-5.97,2.62-5.97,5.91,2.64,5.91,5.97,5.91v2.48h8.54Z"/></g><path class="cls-2" d="M39.93,5.03h-4.27c-.47,0-.88-.4-.88-.87s.41-.87.88-.87h3.39v-1.68H1.76v1.75h3.39c.47,0,.88.4.88.87s-.41.87-.88.87H.88c-.47,0-.88-.4-.88-.87V.87c0-.47.41-.87.88-.87h38.98c.47,0,.88.4.88.87v3.36c0,.4-.41.81-.81.81Z"/><path class="cls-2" d="M35.66,30.21c-.47,0-.88-.4-.88-.87V5.03H6.03v24.37c0,.47-.41.87-.88.87s-.88-.4-.88-.87V4.23c0-.47.41-.87.88-.87h30.51c.47,0,.88.4.88.87v25.17c0,.4-.41.81-.88.81Z"/><path class="cls-2" d="M37.36,33.57H3.46c-.47,0-.88-.4-.88-.87v-3.36c0-.47.41-.87.88-.87h33.9c.47,0,.88.4.88.87v3.36c0,.47-.41.87-.88.87ZM4.34,31.89h32.2v-1.68H4.34v1.68Z"/><path class="cls-2" d="M20.41,40.28c-1.42,0-2.58-1.14-2.58-2.55s1.15-2.55,2.58-2.55,2.58,1.14,2.58,2.55-1.15,2.55-2.58,2.55ZM20.41,36.92c-.47,0-.88.4-.88.87s.41.87.88.87.88-.4.88-.87-.41-.87-.88-.87Z"/><path class="cls-2" d="M20.41,36.92c-.47,0-.88-.4-.88-.87v-2.48c0-.47.41-.87.88-.87s.88.4.88.87v2.55c0,.4-.41.81-.88.81Z"/><path class="cls-2" d="M18.71,21.82c-3.73,0-6.78-3.02-6.78-6.71s3.05-6.71,6.78-6.71,6.78,3.02,6.78,6.71-3.05,6.71-6.78,6.71ZM18.71,10.07c-2.78,0-5.08,2.28-5.08,5.03s2.3,5.03,5.08,5.03,5.08-2.28,5.08-5.03-2.3-5.03-5.08-5.03Z"/><path class="cls-2" d="M27.19,24.37h-8.47c-.47,0-.88-.4-.88-.87v-8.39c0-.47.41-.87.88-.87h8.47c.47,0,.88.4.88.87v8.39c0,.47-.41.87-.88.87ZM19.59,22.69h6.78v-6.71h-6.78v6.71Z"/></g></svg>