<?xml version="1.0" encoding="UTF-8"?><svg id="Layer_1" xmlns="http://www.w3.org/2000/svg" viewBox="0 0 25.26 37.52"><defs><style>.cls-1{fill:#0031b7;}.cls-2{fill:#4858a1;}.cls-3{fill:#fff;}.cls-4{opacity:.2;}</style></defs><g id="_327_Find_Magnifier_Magnifying_Search"><path class="cls-3" d="M12.63,5.5c3.91,0,7.07,3.14,7.07,7s-3.17,7-7.07,7-7.07-3.14-7.07-7,3.17-7,7.07-7Z"/><g class="cls-4"><polygon class="cls-1" points="15.79 28.14 15.79 36.77 9.47 36.77 9.47 28.14 11.05 28.14 14.21 28.14 15.79 28.14"/></g><g class="cls-4"><polygon class="cls-1" points="14.21 24.26 14.21 28.14 11.05 28.14 11.05 24.26 12.63 24.26 14.21 24.26"/></g><g class="cls-4"><path class="cls-1" d="M12.63.81c6.57,0,11.87,5.25,11.87,11.76s-5.3,11.69-11.87,11.69S.82,19.01.82,12.51,6.06.81,12.63.81ZM19.77,12.51c0-3.88-3.16-7.07-7.14-7.07s-7.14,3.13-7.14,7.07,3.16,7.07,7.14,7.07,7.14-3.19,7.14-7.07Z"/></g><path class="cls-2" d="M12.63,25.01C5.68,25.01,0,19.38,0,12.51S5.68,0,12.63,0s12.63,5.63,12.63,12.51-5.68,12.51-12.63,12.51ZM12.63,1.56C6.57,1.56,1.58,6.5,1.58,12.51s4.99,10.94,11.05,10.94,11.05-4.94,11.05-10.94S18.69,1.56,12.63,1.56Z"/><path class="cls-2" d="M12.63,20.32c-4.36,0-7.89-3.5-7.89-7.82s3.54-7.82,7.89-7.82,7.89,3.5,7.89,7.82-3.54,7.82-7.89,7.82ZM12.63,6.25c-3.47,0-6.32,2.81-6.32,6.25s2.84,6.25,6.32,6.25,6.32-2.81,6.32-6.25-2.84-6.25-6.32-6.25Z"/><path class="cls-2" d="M15.79,12.51c-.44,0-.76-.31-.76-.75-.06-.37-.82-1.56-1.58-1.56-.44,0-.82-.37-.82-.81s.38-.81.82-.81c1.83,0,3.16,2.19,3.16,3.13,0,.44-.38.81-.82.81Z"/><path class="cls-2" d="M15.79,37.52h-6.32c-.44,0-.82-.37-.82-.81v-8.57c0-.44.38-.81.82-.81h1.58c.44,0,.82.37.82.81s-.38.81-.82.81h-.82v7.07h4.74v-7.07h-.82c-.44,0-.82-.37-.82-.81s.38-.81.82-.81h1.64c.44,0,.82.37.82.81v8.63c0,.38-.38.75-.82.75Z"/><path class="cls-2" d="M14.21,28.95h-3.16c-.44,0-.82-.37-.82-.81v-3.94c0-.44.38-.81.82-.81h3.16c.44,0,.82.37.82.81v3.94c0,.44-.38.81-.82.81ZM11.87,27.39h1.58v-2.38h-1.58v2.38Z"/></g></svg>