<?xml version="1.0" encoding="UTF-8"?><svg id="Layer_1" xmlns="http://www.w3.org/2000/svg" viewBox="0 0 23.83 24"><defs><style>.cls-1{fill:#7985ac;}</style></defs><path class="cls-1" d="M15.72,10.72c-1.6-.02-3.21-.01-4.81,0,.62-.69,1.34-1.3,1.89-2.05.5-.75-.23-1.78-1.07-1.79-.5-.06-.86.34-1.18.66-1.01,1.07-3.74,3.9-3.7,4.4-.03.5,2.83,3.39,3.94,4.47.25.25.57.5.95.46.92.04,1.66-1.24,1.02-1.95-.51-.63-1.17-1.13-1.69-1.75,1.56.02,3.12,0,4.69,0,.73.05,1.39-.68,1.25-1.4-.09-.6-.66-1.08-1.27-1.05Z"/><path class="cls-1" d="M18.59,2.06C16.21.43,13.24-.26,10.38.09c-1.62.22-3.19.76-4.6,1.59C3.55,2.99,1.82,5.09.86,7.48-.1,9.86-.25,12.54.38,15.02c.53,1.99,1.6,3.81,2.99,5.31,1.93,2.05,4.62,3.33,7.41,3.61,2.68.29,5.42-.45,7.65-1.94,2.5-1.65,4.36-4.27,5.05-7.19.55-2.36.45-4.89-.43-7.16-.83-2.29-2.48-4.21-4.47-5.59ZM15,21c-2.49.9-5.35.62-7.65-.68-1.76-.94-3.15-2.51-3.99-4.31-1.15-2.45-1.22-5.4-.11-7.88,1.29-3.02,4.26-5.27,7.54-5.6,2.07-.21,4.24.2,6.01,1.32,2.52,1.49,4.28,4.21,4.57,7.13.44,4.25-2.32,8.62-6.37,10.02Z"/></svg>