<?xml version="1.0" encoding="UTF-8"?><svg id="Layer_1" xmlns="http://www.w3.org/2000/svg" viewBox="0 0 18.31 18.19"><defs><style>.cls-1{fill:#fff;}</style></defs><path class="cls-1" d="M11.75,6.17l-1.04,1.89c-.09.16-.24.43-.33.6l-1.04,1.89c-.09.16-.26.19-.38.05l-1.36-1.58c-.12-.14-.31-.36-.43-.5l-1.36-1.58c-.12-.14-.08-.27.08-.29l1.29-.17c0-.14,0-.3-.02-.48,0-.23-.04-.46-.06-.73-.04-.25-.08-.54-.16-.82-.02-.07-.03-.14-.06-.22-.02-.07-.05-.14-.07-.21-.03-.07-.05-.15-.08-.22-.03-.07-.06-.14-.09-.21-.12-.28-.29-.54-.48-.81l-.16-.18-.08-.09-.09-.08-.18-.17-.19-.15-.1-.08-.1-.07-.21-.14c-.15-.08-.29-.17-.45-.23-.31-.15-.63-.25-.95-.34-.32-.08-.64-.14-.95-.17-.31-.04-.6-.05-.87-.05-.55,0-1.01.04-1.33.08-.32.04-.51.09-.51.09,0,0,.17-.1.47-.25.3-.15.75-.34,1.3-.52.28-.09.58-.18.91-.25.33-.08.68-.12,1.05-.16.37-.02.76-.03,1.17.02.2.01.41.06.61.1l.31.08.16.04.15.06.31.12.3.15.15.08.15.09c.1.06.2.13.29.19.38.28.74.6,1.05.96.08.09.15.18.23.27.07.09.14.19.2.29.07.1.13.19.2.29.06.1.11.2.17.29.11.19.22.39.3.58.09.19.18.38.25.56.13.36.27.7.35,1,.09.3.17.57.21.79,0,.04.02.07.02.11l1.3-.17c.16-.02.22.1.13.26ZM18.31,8.68v8.16c0,.48-.25.9-.63,1.14-.21.13-.46.21-.73.21H1.41c-.27,0-.52-.08-.73-.21-.38-.24-.63-.66-.63-1.14v-8.16c0-.74.46-1.75,1.03-2.23,0,0,0,0,0,0l4.21-3.59.08.07.06.06.06.07.14.17c.17.24.28.42.36.59L1.88,7.32l5.46,4.66.81-.69c.1-.09.21-.16.33-.21.22-.1.46-.15.7-.15.22,0,.43.04.63.12.14.06.28.14.4.24l.81.69,5.46-4.66L9.44,1.32s-.11-.06-.18-.07c-.02,0-.05,0-.08,0s-.05,0-.08,0c-.05,0-.1.02-.13.04-.02,0-.04.02-.05.03l-.09.07c-.24-.28-.53-.55-.87-.82l.19-.16c.28-.24.66-.36,1.03-.36.09,0,.19,0,.28.02.09.02.18.04.27.07.18.06.34.15.48.27l7.07,6.03c.57.48,1.03,1.49,1.03,2.23ZM6.43,12.76L1.28,8.37c-.03.11-.04.22-.04.31v8.16c0,.09.08.17.17.17h.04l4.98-4.25ZM15.09,17.01l-4.07-3.47-.91-.78-.66-.57c-.06-.05-.16-.08-.26-.08s-.2.03-.26.08l-.66.57-.91.78-4.07,3.47h11.82ZM17.12,8.68c0-.09-.02-.2-.04-.31l-5.14,4.39,4.98,4.25h.04c.09,0,.17-.08.17-.17v-8.16Z"/></svg>