<?xml version="1.0" encoding="UTF-8"?><svg id="Layer_1" xmlns="http://www.w3.org/2000/svg" viewBox="0 0 29.72 30.35"><defs><style>.cls-1{fill:#0031b7;}.cls-2{fill:#4858a1;}.cls-3{fill:#fff;}.cls-4{opacity:.2;}</style></defs><g id="_809_File_Education_Pen_Pencil"><polygon class="cls-3" points="4.64 9.91 4.64 11.22 .68 11.22 .68 9.91 2.69 5.27 4.64 9.91"/><g class="cls-4"><rect class="cls-1" x=".68" y="11.22" width="3.95" height="2.63"/></g><g class="cls-4"><path class="cls-1" d="M4.64,13.86v13.86c0,1.11-.9,2-2,2-.53,0-1.05-.21-1.42-.58-.37-.37-.58-.84-.58-1.42v-13.86h4Z"/></g><g class="cls-4"><path class="cls-1" d="M23.76.68c2.05,2.06,3.21,3.21,5.27,5.27h-5.27V.68Z"/></g><g class="cls-4"><rect class="cls-1" x="12.59" y="19.13" width="2.63" height="2.63"/></g><g class="cls-4"><rect class="cls-1" x="12.59" y="13.86" width="2.63" height="2.63"/></g><g class="cls-4"><rect class="cls-1" x="12.59" y="8.59" width="2.63" height="2.63"/></g><path class="cls-3" d="M29.03,27.03c0,1.48-1.16,2.63-2.63,2.63h-14.49c-1.48,0-2.63-1.16-2.63-2.63V3.32c0-1.48,1.16-2.63,2.63-2.63h11.86v5.27h5.27v21.08ZM15.23,21.76v-2.63h-2.63v2.63h2.63ZM15.23,16.49v-2.63h-2.63v2.63h2.63ZM15.23,11.22v-2.63h-2.63v2.63h2.63Z"/><path class="cls-2" d="M26.4,30.35h-14.49c-1.79,0-3.32-1.48-3.32-3.32V3.32c0-1.79,1.48-3.32,3.32-3.32h11.86c.16,0,.32.05.47.21l5.27,5.27c.11.11.21.32.21.47v21.08c0,1.79-1.53,3.32-3.32,3.32ZM11.91,1.37c-1.11,0-2,.9-2,2v23.71c0,1.11.9,2,2,2h14.49c1.11,0,2-.9,2-2V6.22l-4.9-4.9h-11.59v.05Z"/><path class="cls-2" d="M29.03,6.64h-5.27c-.37,0-.69-.32-.69-.69V.68c0-.37.32-.68.69-.68s.69.32.69.68v4.64h4.58c.37,0,.68.32.68.69,0,.32-.32.63-.68.63Z"/><path class="cls-2" d="M15.23,11.91h-2.63c-.37,0-.69-.32-.69-.68v-2.63c0-.37.32-.69.69-.69h2.63c.37,0,.68.32.68.69v2.63c-.05.37-.37.68-.68.68ZM13.22,10.59h1.32v-1.32h-1.32v1.32Z"/><path class="cls-2" d="M22.45,9.91h-5.27c-.37,0-.69-.32-.69-.68s.32-.69.69-.69h5.27c.37,0,.69.32.69.69s-.32.68-.69.68Z"/><path class="cls-2" d="M25.77,11.91h-8.59c-.37,0-.69-.32-.69-.68s.32-.69.69-.69h8.59c.37,0,.69.32.69.69-.05.37-.37.68-.69.68Z"/><path class="cls-2" d="M15.23,17.18h-2.63c-.37,0-.69-.32-.69-.69v-2.63c0-.37.32-.69.69-.69h2.63c.37,0,.68.32.68.69v2.63c-.05.37-.37.69-.68.69ZM13.22,15.86h1.32v-1.32h-1.32v1.32Z"/><path class="cls-2" d="M22.45,15.18h-5.27c-.37,0-.69-.32-.69-.69s.32-.68.69-.68h5.27c.37,0,.69.32.69.68s-.32.69-.69.69Z"/><path class="cls-2" d="M25.77,17.18h-8.59c-.37,0-.69-.32-.69-.69s.32-.68.69-.68h8.59c.37,0,.69.32.69.68s-.37.69-.69.69Z"/><path class="cls-2" d="M15.23,22.45h-2.63c-.37,0-.69-.32-.69-.69v-2.63c0-.37.32-.68.69-.68h2.63c.37,0,.68.32.68.68v2.63c-.05.37-.37.69-.68.69ZM13.22,21.13h1.32v-1.32h-1.32v1.32Z"/><path class="cls-2" d="M22.45,20.44h-5.27c-.37,0-.69-.32-.69-.69s.32-.68.69-.68h5.27c.37,0,.69.32.69.68s-.32.69-.69.69Z"/><path class="cls-2" d="M25.77,22.45h-8.59c-.37,0-.69-.32-.69-.69s.32-.68.69-.68h8.59c.37,0,.69.32.69.68s-.37.69-.69.69Z"/><path class="cls-2" d="M29.03,27.72H11.91c-.37,0-.68-.32-.68-.68s.32-.69.68-.69h17.13c.37,0,.68.32.68.69s-.32.68-.68.68Z"/><path class="cls-2" d="M2.69,30.35c-.69,0-1.37-.26-1.84-.79-.47-.47-.79-1.16-.79-1.84V11.22c0-.37.32-.69.68-.69s.69.32.69.69v16.49c0,.37.16.69.37.95.26.26.58.37.95.37.74,0,1.32-.58,1.32-1.32V11.22c0-.37.32-.69.69-.69s.69.32.69.69v16.49c-.11,1.42-1.32,2.63-2.74,2.63Z"/><path class="cls-2" d="M4.64,11.86H.68c-.37,0-.68-.32-.68-.69v-1.32c0-.11,0-.16.05-.26l2-4.64c.11-.26.32-.42.58-.42s.53.16.58.42l2,4.64c.05.11.05.16.05.26v1.32c.05.37-.26.69-.63.69ZM1.37,10.54h2.63v-.53l-1.32-3.06-1.32,3.06v.53Z"/><path class="cls-2" d="M4.64,14.49H.68c-.37,0-.68-.32-.68-.68s.32-.63.68-.63h3.95c.37,0,.68.32.68.69s-.32.63-.68.63Z"/></g></svg>