<?xml version="1.0" encoding="UTF-8"?><svg id="Layer_1" xmlns="http://www.w3.org/2000/svg" viewBox="0 0 101.57 64.87"><defs><style>.cls-1{fill:#fff;fill-rule:evenodd;opacity:.1;}</style></defs><path class="cls-1" d="M56.58,51.8l7.54,13.07,8.3-14.38c.26-.38.49-.78.7-1.2l2.55-4.43h0L101.57,0h-15.08l-2.61,4.53h0l-8.2,14.2-2.55,4.43c-.21.42-.44.82-.7,1.2l-8.3,14.39-6.14,10.64h0s-1.4,2.42-1.4,2.42h0ZM46.45,49.28c-.2.42-.43.82-.69,1.2l-8.3,14.38-8.31-14.38c-.26-.38-.49-.78-.69-1.2l-2.56-4.43h0L0,0h15.08l10.82,18.73h0l2.56,4.43c.2.42.43.82.69,1.2l8.31,14.39,5.8-10.04L26.67,0h15.08l9.03,15.64L59.82,0h15.08l-25.9,44.86h0l-2.56,4.43h0Z"/></svg>