<?xml version="1.0" encoding="UTF-8"?><svg id="Layer_1" xmlns="http://www.w3.org/2000/svg" viewBox="0 0 272.16 37.75"><defs><style>.cls-1{fill:#002761;}</style></defs><path class="cls-1" d="M60.78,2.65h5.88v1.77h-3.67v6.74c1.52-.02,2.88-.11,4.39-.39l.17,1.8c-1.92.37-3.6.43-5.67.43h-1.1V2.65ZM73.95,16.58h-2.09v-7.91h-1.52v7.13h-2.03V1.09h2.03v5.81h1.52V.82h2.09v15.76Z"/><path class="cls-1" d="M79.63,5.76v-.61h-3.35v-1.76h3.34V1.18h2.2v2.22h3.28v1.76h-3.27v.61c0,2.28,1.29,4.85,3.91,5.94l-1.19,1.69c-1.79-.74-3.08-2.25-3.79-4.05-.7,1.92-1.99,3.52-3.82,4.3l-1.18-1.69c2.59-1.14,3.87-3.78,3.88-6.18ZM88.83,16.58h-2.21V.82h2.21v15.76Z"/><path class="cls-1" d="M118.61,18.39l.4,4.3c-2.92.61-5.93,1-8.89,1.26v12.59h-5.88v-12.23c-3.13.13-6.08.16-8.63.2l-.69-4.76c6.51-.01,15.83-.14,23.69-1.36ZM116.92,9.73c0,4.71-4.22,8.05-9.99,8.03-5.72.03-9.92-3.32-9.9-8.03-.01-4.78,4.19-8.08,9.9-8.07,5.77-.01,9.99,3.29,9.99,8.07ZM106.93,12.99c2.61.01,4.4-1.13,4.42-3.26-.01-2.24-1.8-3.38-4.42-3.38-2.47,0-4.24,1.14-4.23,3.38-.01,2.14,1.76,3.28,4.23,3.26ZM120.7.23h5.86v37.37h-5.86V.23Z"/><path class="cls-1" d="M149.72,8.16h-11.14v15.81c5.07-.04,8.82-.3,12.95-1.05l.59,4.72c-5.02.98-9.54,1.15-16.34,1.14h-3.1V3.41h17.05v4.75ZM147.99,12.93h8.89V.17h5.88v37.57h-5.88v-20.04h-8.89v-4.78Z"/><path class="cls-1" d="M167.08,28.39h34.22v4.81h-34.22v-4.81ZM200.27,17.55l-2.57,4.89c-6.71-1.28-11.33-4.82-13.73-9.41-2.44,4.55-7.07,8.1-13.73,9.41l-2.5-4.89c8.92-1.54,13.03-7.49,13.06-12.63v-2.61h6.29v2.61c-.01,5.23,4.04,11.13,13.16,12.63Z"/><path class="cls-1" d="M225.37,7.91h-22.19V3.33h8.17V0h5.88v3.33h8.14v4.58ZM214.29,8.88c5.46.01,9.28,2.84,9.3,6.96-.01,4.13-3.84,6.96-9.3,6.96s-9.38-2.83-9.37-6.96c-.01-4.11,3.93-6.94,9.37-6.96ZM207.63,25.12h25.43v12.53h-5.9v-7.85h-19.53v-4.68ZM214.29,18.33c2.19.01,3.7-.78,3.71-2.5-.01-1.72-1.52-2.57-3.71-2.57s-3.64.85-3.64,2.57,1.44,2.51,3.64,2.5ZM227.16.17h5.9v9.54h4.85v4.75h-4.85v9.25h-5.9V.17Z"/><path class="cls-1" d="M263.18,15.45l.32,4.19c-2.83.48-5.75.82-8.63,1.05v7.02h-5.17v4.65h22.46v4.71h-28.35v-11.27h5.14v-4.73c-3.22.13-6.28.16-9.04.16l-.68-4.6c6.84-.07,16.07-.17,23.95-1.15ZM251.37,1.42c5.44-.01,9.38,2.79,9.4,6.78-.01,4.01-3.96,6.64-9.4,6.64s-9.44-2.63-9.44-6.64,3.88-6.8,9.44-6.78ZM251.37,10.61c2.21.01,3.8-.78,3.81-2.41-.01-1.67-1.6-2.5-3.81-2.51-2.32.01-3.88.84-3.87,2.51-.01,1.63,1.54,2.42,3.87,2.41ZM271.35,28.48h-5.89v-2.7h-6.97v-3.96h6.97V.23h5.89v28.25Z"/><path class="cls-1" d="M30.72,16.45c1.85,4.44,4.27,10.28,5.4,12.93.11.06.39.06.45,0,1.8-3.93,8.18-20.34,9.7-24.11.06-.28,0-.84-.34-1.07-.51-.39-1.52-.79-3.48-1.07-.17-.17-.06-1.74.17-1.91.62,0,3.15.06,5.62.06,2.3,0,5.17-.11,6.07-.11.28.17.34,1.8.06,1.97-1.01.11-2.53.56-3.2.84-1.35.51-1.8,1.4-2.81,3.43-1.74,3.65-10.99,26.19-12.17,29.11-.22.28-2.7.28-2.92,0-.84-2.53-4.21-10.45-5.96-14.78-.06-.11-.17-.11-.22,0-3.6,7.36-5.79,12.03-6.91,14.72-.22.34-2.58.34-2.81.06-.45-1.41-1.01-3.09-2.87-7.81C12.45,23.64,6.44,8.35,5.31,5.77c-.45-.9-.73-1.29-1.46-1.74-.51-.28-2.25-.73-3.71-.9-.28-.17-.11-1.85.17-1.97,1.01.06,3.37.11,7.19.11,2.3,0,5.9-.06,6.24-.06.22.17.28,1.69.06,1.91-1.4.28-2.25.45-2.64.73-.39.17-.45.56-.34.96,1.12,2.98,7.36,18.49,9.67,24.33.11.06.22.11.34,0,.62-1.24,3.09-6.35,4.95-10.28.11-.22.11-.39,0-.62-1.52-3.77-2.87-6.91-4.78-11.35-.95-2.08-1.4-2.64-2.08-2.98-.56-.28-2.25-.62-3.43-.79-.11-.11-.06-1.74.11-1.91,1.29,0,4.05.06,7.14.06,2.7,0,5.28-.06,5.62-.06.17.11.17,1.74.06,1.91-.9.22-1.85.51-2.25.67-.45.28-.45.62-.34,1.01.51,1.24,2.08,5,3.48,8.32"/></svg>