<?xml version="1.0" encoding="UTF-8"?><svg id="Layer_1" xmlns="http://www.w3.org/2000/svg" viewBox="0 0 165.14 22.9"><defs><style>.cls-1{fill:#fff;}.cls-2{opacity:.8;}</style></defs><g class="cls-2"><path class="cls-1" d="M36.88,1.61h3.56v1.08h-2.22v4.08c.92-.01,1.74-.07,2.66-.23l.1,1.09c-1.16.23-2.18.26-3.44.26h-.67V1.61ZM44.86,10.06h-1.26v-4.79h-.92v4.32h-1.23V.67h1.23v3.52h.92V.51h1.26v9.55Z"/><path class="cls-1" d="M48.31,3.5v-.37h-2.03v-1.06h2.02V.72h1.33v1.34h1.99v1.06h-1.98v.37c0,1.38.78,2.94,2.37,3.6l-.72,1.02c-1.09-.45-1.87-1.36-2.3-2.45-.43,1.16-1.21,2.14-2.32,2.6l-.72-1.03c1.57-.69,2.35-2.29,2.35-3.75ZM53.89,10.06h-1.34V.51h1.34v9.55Z"/><path class="cls-1" d="M71.97,11.16l.25,2.61c-1.77.37-3.6.6-5.4.76v7.64h-3.56v-7.42c-1.9.08-3.69.1-5.24.12l-.42-2.89c3.95,0,9.61-.09,14.37-.82ZM70.94,5.9c0,2.86-2.56,4.89-6.06,4.87-3.47.02-6.02-2.01-6.01-4.87,0-2.9,2.54-4.9,6.01-4.9,3.5,0,6.06,2,6.06,4.9ZM64.88,7.88c1.58,0,2.67-.68,2.68-1.98,0-1.36-1.1-2.05-2.68-2.05-1.5,0-2.58.69-2.57,2.05,0,1.3,1.07,1.99,2.57,1.98ZM73.24.14h3.56v22.68h-3.56V.14Z"/><path class="cls-1" d="M90.84,4.95h-6.76v9.59c3.07-.03,5.35-.18,7.86-.64l.36,2.86c-3.05.6-5.79.7-9.92.69h-1.88V2.07h10.34v2.88ZM89.79,7.85h5.4V.11h3.56v22.8h-3.56v-12.16h-5.4v-2.9Z"/><path class="cls-1" d="M101.38,17.23h20.77v2.92h-20.77v-2.92ZM121.52,10.65l-1.56,2.97c-4.07-.78-6.88-2.93-8.33-5.71-1.48,2.76-4.29,4.91-8.33,5.71l-1.51-2.97c5.41-.94,7.91-4.55,7.93-7.66v-1.59h3.82v1.59c0,3.17,2.45,6.75,7.99,7.66Z"/><path class="cls-1" d="M136.75,4.8h-13.46v-2.78h4.96V0h3.57v2.02h4.94v2.78ZM130.02,5.39c3.31,0,5.63,1.73,5.64,4.22,0,2.5-2.33,4.22-5.64,4.22s-5.69-1.72-5.69-4.22c0-2.5,2.38-4.21,5.69-4.22ZM125.98,15.24h15.43v7.6h-3.58v-4.76h-11.85v-2.84ZM130.02,11.12c1.33,0,2.24-.47,2.25-1.52,0-1.04-.92-1.56-2.25-1.56s-2.21.52-2.21,1.56.88,1.52,2.21,1.52ZM137.84.11h3.58v5.79h2.94v2.88h-2.94v5.61h-3.58V.11Z"/><path class="cls-1" d="M159.69,9.37l.19,2.54c-1.72.29-3.49.5-5.24.64v4.26h-3.14v2.82h13.63v2.86h-17.2v-6.84h3.12v-2.87c-1.95.08-3.81.1-5.48.1l-.41-2.79c4.15-.04,9.75-.1,14.53-.7ZM152.52.86c3.3,0,5.69,1.69,5.7,4.12,0,2.43-2.4,4.03-5.7,4.03s-5.73-1.59-5.73-4.03,2.36-4.13,5.73-4.12ZM152.52,6.44c1.34,0,2.3-.47,2.31-1.46,0-1.02-.97-1.52-2.31-1.52-1.41,0-2.36.51-2.35,1.52,0,.99.94,1.47,2.35,1.46ZM164.65,17.28h-3.57v-1.64h-4.23v-2.4h4.23V.14h3.57v17.14Z"/><path class="cls-1" d="M18.64,9.98c1.13,2.69,2.59,6.24,3.27,7.84.07.03.24.03.27,0,1.09-2.39,4.96-12.34,5.89-14.63.03-.17,0-.51-.2-.65-.31-.24-.92-.48-2.11-.65-.1-.1-.03-1.06.1-1.16.38,0,1.91.03,3.41.03,1.4,0,3.14-.07,3.68-.07.17.1.2,1.09.03,1.19-.61.07-1.53.34-1.94.51-.82.31-1.09.85-1.7,2.08-1.06,2.22-6.67,15.89-7.39,17.66-.14.17-1.64.17-1.77,0-.51-1.53-2.56-6.34-3.61-8.97-.03-.07-.1-.07-.14,0-2.18,4.47-3.51,7.3-4.19,8.93-.14.2-1.57.2-1.7.03-.27-.85-.61-1.88-1.74-4.74C7.56,14.34,3.91,5.07,3.22,3.5c-.27-.55-.44-.78-.89-1.06-.31-.17-1.36-.44-2.25-.55-.17-.1-.07-1.13.1-1.19.61.03,2.05.07,4.36.07,1.4,0,3.58-.03,3.78-.03.14.1.17,1.02.03,1.16-.85.17-1.36.27-1.6.44-.24.1-.27.34-.2.58.68,1.81,4.47,11.22,5.87,14.76.07.03.14.07.2,0,.38-.75,1.88-3.85,3-6.24.07-.14.07-.24,0-.38-.92-2.28-1.74-4.19-2.9-6.89-.58-1.26-.85-1.6-1.26-1.81-.34-.17-1.36-.37-2.08-.48-.07-.07-.03-1.06.07-1.16.78,0,2.46.03,4.33.03,1.64,0,3.21-.03,3.41-.03.1.07.1,1.06.03,1.16-.55.14-1.12.31-1.36.41-.27.17-.27.38-.2.61.31.75,1.26,3.03,2.11,5.05"/></g></svg>